<mxfile host="65bd71144e" pages="4">
    <diagram id="1LWlJgbp7QcoqUJKHBrb" name="Diagrama">
        <mxGraphModel dx="2082" dy="1337" grid="1" gridSize="10" guides="1" tooltips="1" connect="1" arrows="1" fold="1" page="0" pageScale="1" pageWidth="2000" pageHeight="2000" math="0" shadow="0">
            <root>
                <mxCell id="0"/>
                <mxCell id="1" parent="0"/>
                <mxCell id="6g_5wwBGzpHhpwhZQn2z-3" value="&lt;font style=&quot;&quot;&gt;&lt;span style=&quot;font-size: 120px;&quot;&gt;&lt;b&gt;CRM&lt;/b&gt;&lt;/span&gt;&lt;br style=&quot;&quot;&gt;&lt;/font&gt;&lt;font style=&quot;font-size: 40px;&quot;&gt;&amp;lt;domain&amp;gt;&lt;/font&gt;" style="ellipse;whiteSpace=wrap;html=1;aspect=fixed;fontSize=30;sketch=1;curveFitting=1;jiggle=2;fillColor=#d5b553;strokeColor=#9a9a1d;fillStyle=solid;" parent="1" vertex="1">
                    <mxGeometry width="1120" height="1120" as="geometry"/>
                </mxCell>
                <mxCell id="6g_5wwBGzpHhpwhZQn2z-1" value="&lt;font style=&quot;font-size: 60px;&quot;&gt;&lt;b&gt;Security&lt;/b&gt;&lt;br style=&quot;&quot;&gt;&lt;/font&gt;&lt;font style=&quot;font-size: 25px;&quot;&gt;&amp;lt;subdomain&amp;gt;&lt;/font&gt;" style="ellipse;whiteSpace=wrap;html=1;aspect=fixed;fontSize=30;sketch=1;curveFitting=1;jiggle=2;fillColor=#64a1f7;strokeColor=#6c8ebf;fillStyle=solid;" parent="1" vertex="1">
                    <mxGeometry x="870" y="275" width="560" height="560" as="geometry"/>
                </mxCell>
                <mxCell id="Vm6Eix3qe_NLgAnI5nFD-1" value="&lt;b&gt;Authentication y Authorization&lt;/b&gt;&lt;br style=&quot;font-size: 30px;&quot;&gt;&lt;font style=&quot;font-size: 25px;&quot;&gt;&amp;lt;context&amp;gt;&lt;/font&gt;" style="ellipse;whiteSpace=wrap;html=1;aspect=fixed;fontSize=30;sketch=1;curveFitting=1;jiggle=2;fillColor=#649861;strokeColor=#82b366;fillStyle=solid;" parent="1" vertex="1">
                    <mxGeometry x="1290" y="235" width="280" height="280" as="geometry"/>
                </mxCell>
                <mxCell id="6g_5wwBGzpHhpwhZQn2z-11" value="" style="edgeStyle=orthogonalEdgeStyle;rounded=0;orthogonalLoop=1;jettySize=auto;html=1;strokeWidth=2;fontSize=40;startArrow=none;startFill=0;sketch=1;curveFitting=1;jiggle=2;curved=1;" parent="1" source="6g_5wwBGzpHhpwhZQn2z-2" target="6g_5wwBGzpHhpwhZQn2z-10" edge="1">
                    <mxGeometry relative="1" as="geometry"/>
                </mxCell>
                <mxCell id="6g_5wwBGzpHhpwhZQn2z-2" value="&lt;b&gt;Identity Management&lt;/b&gt;&lt;br style=&quot;font-size: 30px;&quot;&gt;&lt;font style=&quot;font-size: 25px;&quot;&gt;&amp;lt;context&amp;gt;&lt;/font&gt;" style="ellipse;whiteSpace=wrap;html=1;aspect=fixed;fontSize=30;sketch=1;curveFitting=1;jiggle=2;fillColor=#529c4f;strokeColor=#82b366;fillStyle=solid;" parent="1" vertex="1">
                    <mxGeometry x="1240" y="640" width="280" height="280" as="geometry"/>
                </mxCell>
                <mxCell id="6g_5wwBGzpHhpwhZQn2z-4" value="&lt;font style=&quot;font-size: 60px;&quot;&gt;&lt;b&gt;Customers&lt;/b&gt;&lt;br style=&quot;&quot;&gt;&lt;/font&gt;&lt;font style=&quot;font-size: 25px;&quot;&gt;&amp;lt;subdomain&amp;gt;&lt;/font&gt;" style="ellipse;whiteSpace=wrap;html=1;aspect=fixed;fontSize=30;sketch=1;curveFitting=1;jiggle=2;fillColor=#649ff2;strokeColor=#6c8ebf;fillStyle=solid;" parent="1" vertex="1">
                    <mxGeometry x="440" y="835" width="560" height="560" as="geometry"/>
                </mxCell>
                <mxCell id="6g_5wwBGzpHhpwhZQn2z-9" value="" style="edgeStyle=orthogonalEdgeStyle;rounded=0;orthogonalLoop=1;jettySize=auto;html=1;fontSize=40;startArrow=none;startFill=0;strokeWidth=2;sketch=1;curveFitting=1;jiggle=2;curved=1;" parent="1" source="6g_5wwBGzpHhpwhZQn2z-5" target="6g_5wwBGzpHhpwhZQn2z-8" edge="1">
                    <mxGeometry relative="1" as="geometry"/>
                </mxCell>
                <mxCell id="6g_5wwBGzpHhpwhZQn2z-5" value="&lt;b&gt;Contacts Management&lt;/b&gt;&lt;br style=&quot;font-size: 30px;&quot;&gt;&lt;font style=&quot;font-size: 25px;&quot;&gt;&amp;lt;context&amp;gt;&lt;/font&gt;" style="ellipse;whiteSpace=wrap;html=1;aspect=fixed;fontSize=30;sketch=1;curveFitting=1;jiggle=2;fillColor=#5e9a5b;strokeColor=#82b366;fillStyle=solid;" parent="1" vertex="1">
                    <mxGeometry x="790" y="1190" width="280" height="280" as="geometry"/>
                </mxCell>
                <mxCell id="6g_5wwBGzpHhpwhZQn2z-15" value="" style="edgeStyle=orthogonalEdgeStyle;rounded=0;orthogonalLoop=1;jettySize=auto;html=1;strokeWidth=2;fontSize=40;startArrow=none;startFill=0;entryX=0;entryY=0.5;entryDx=0;entryDy=0;sketch=1;curveFitting=1;jiggle=2;curved=1;" parent="1" source="6g_5wwBGzpHhpwhZQn2z-8" target="6g_5wwBGzpHhpwhZQn2z-14" edge="1">
                    <mxGeometry relative="1" as="geometry"/>
                </mxCell>
                <mxCell id="6g_5wwBGzpHhpwhZQn2z-24" style="edgeStyle=orthogonalEdgeStyle;rounded=0;orthogonalLoop=1;jettySize=auto;html=1;entryX=0;entryY=0.5;entryDx=0;entryDy=0;strokeWidth=2;fontSize=40;startArrow=none;startFill=0;sketch=1;curveFitting=1;jiggle=2;curved=1;" parent="1" source="6g_5wwBGzpHhpwhZQn2z-8" target="6g_5wwBGzpHhpwhZQn2z-22" edge="1">
                    <mxGeometry relative="1" as="geometry"/>
                </mxCell>
                <mxCell id="6g_5wwBGzpHhpwhZQn2z-25" style="edgeStyle=orthogonalEdgeStyle;rounded=0;orthogonalLoop=1;jettySize=auto;html=1;entryX=0;entryY=0.5;entryDx=0;entryDy=0;strokeWidth=2;fontSize=40;startArrow=none;startFill=0;sketch=1;curveFitting=1;jiggle=2;curved=1;" parent="1" source="6g_5wwBGzpHhpwhZQn2z-8" target="6g_5wwBGzpHhpwhZQn2z-23" edge="1">
                    <mxGeometry relative="1" as="geometry"/>
                </mxCell>
                <mxCell id="6g_5wwBGzpHhpwhZQn2z-8" value="&lt;b&gt;Customer&lt;/b&gt;&lt;br style=&quot;font-size: 30px;&quot;&gt;&lt;font style=&quot;font-size: 25px;&quot;&gt;&amp;lt;aggregate root&amp;gt;&lt;/font&gt;" style="ellipse;whiteSpace=wrap;html=1;aspect=fixed;fontSize=30;sketch=1;curveFitting=1;jiggle=2;fillColor=#b17535;strokeColor=#d79b00;fillStyle=solid;" parent="1" vertex="1">
                    <mxGeometry x="1170" y="1210" width="240" height="240" as="geometry"/>
                </mxCell>
                <mxCell id="6g_5wwBGzpHhpwhZQn2z-13" value="" style="edgeStyle=orthogonalEdgeStyle;rounded=0;orthogonalLoop=1;jettySize=auto;html=1;strokeWidth=2;fontSize=40;startArrow=none;startFill=0;sketch=1;curveFitting=1;jiggle=2;curved=1;" parent="1" source="6g_5wwBGzpHhpwhZQn2z-10" target="6g_5wwBGzpHhpwhZQn2z-12" edge="1">
                    <mxGeometry relative="1" as="geometry"/>
                </mxCell>
                <mxCell id="6g_5wwBGzpHhpwhZQn2z-21" style="edgeStyle=orthogonalEdgeStyle;rounded=0;orthogonalLoop=1;jettySize=auto;html=1;entryX=0;entryY=0.5;entryDx=0;entryDy=0;strokeWidth=2;fontSize=40;startArrow=none;startFill=0;sketch=1;curveFitting=1;jiggle=2;curved=1;" parent="1" source="6g_5wwBGzpHhpwhZQn2z-10" target="6g_5wwBGzpHhpwhZQn2z-20" edge="1">
                    <mxGeometry relative="1" as="geometry"/>
                </mxCell>
                <mxCell id="6g_5wwBGzpHhpwhZQn2z-10" value="&lt;b&gt;User&lt;/b&gt;&lt;br style=&quot;font-size: 30px;&quot;&gt;&lt;font style=&quot;font-size: 25px;&quot;&gt;&amp;lt;aggregate root&amp;gt;&lt;/font&gt;" style="ellipse;whiteSpace=wrap;html=1;aspect=fixed;fontSize=30;sketch=1;curveFitting=1;jiggle=2;fillColor=#d18029;strokeColor=#d79b00;fillStyle=solid;" parent="1" vertex="1">
                    <mxGeometry x="1600" y="660" width="240" height="240" as="geometry"/>
                </mxCell>
                <mxCell id="6g_5wwBGzpHhpwhZQn2z-12" value="&lt;b&gt;Phone&lt;/b&gt;&lt;br style=&quot;font-size: 30px;&quot;&gt;&lt;font style=&quot;font-size: 25px;&quot;&gt;&amp;lt;entity&amp;gt;&lt;/font&gt;" style="ellipse;whiteSpace=wrap;html=1;aspect=fixed;fontSize=30;sketch=1;curveFitting=1;jiggle=2;fillColor=#a33dd6;strokeColor=#9673a6;fillStyle=solid;" parent="1" vertex="1">
                    <mxGeometry x="1960" y="550" width="200" height="200" as="geometry"/>
                </mxCell>
                <mxCell id="6g_5wwBGzpHhpwhZQn2z-14" value="&lt;b&gt;Phone&lt;/b&gt;&lt;br style=&quot;font-size: 30px;&quot;&gt;&lt;font style=&quot;font-size: 25px;&quot;&gt;&amp;lt;entity&amp;gt;&lt;/font&gt;" style="ellipse;whiteSpace=wrap;html=1;aspect=fixed;fontSize=30;sketch=1;curveFitting=1;jiggle=2;fillColor=#8023af;strokeColor=#9673a6;fillStyle=solid;" parent="1" vertex="1">
                    <mxGeometry x="1520" y="990" width="200" height="200" as="geometry"/>
                </mxCell>
                <mxCell id="6g_5wwBGzpHhpwhZQn2z-16" value="" style="edgeStyle=orthogonalEdgeStyle;rounded=0;orthogonalLoop=1;jettySize=auto;html=1;strokeWidth=2;fontSize=40;startArrow=none;startFill=0;sketch=1;curveFitting=1;jiggle=2;curved=1;" parent="1" source="Vm6Eix3qe_NLgAnI5nFD-1" target="6g_5wwBGzpHhpwhZQn2z-18" edge="1">
                    <mxGeometry relative="1" as="geometry">
                        <mxPoint x="1579.9999999999995" y="360" as="sourcePoint"/>
                    </mxGeometry>
                </mxCell>
                <mxCell id="6g_5wwBGzpHhpwhZQn2z-17" value="" style="edgeStyle=orthogonalEdgeStyle;rounded=0;orthogonalLoop=1;jettySize=auto;html=1;strokeWidth=2;fontSize=40;startArrow=none;startFill=0;sketch=1;curveFitting=1;jiggle=2;curved=1;" parent="1" source="6g_5wwBGzpHhpwhZQn2z-18" target="6g_5wwBGzpHhpwhZQn2z-19" edge="1">
                    <mxGeometry relative="1" as="geometry"/>
                </mxCell>
                <mxCell id="6g_5wwBGzpHhpwhZQn2z-18" value="&lt;b&gt;User&lt;/b&gt;&lt;br style=&quot;font-size: 30px;&quot;&gt;&lt;font style=&quot;font-size: 25px;&quot;&gt;&amp;lt;aggregate root&amp;gt;&lt;/font&gt;" style="ellipse;whiteSpace=wrap;html=1;aspect=fixed;fontSize=30;sketch=1;curveFitting=1;jiggle=2;fillColor=#c8843c;strokeColor=#d79b00;fillStyle=solid;" parent="1" vertex="1">
                    <mxGeometry x="1650" y="255" width="240" height="240" as="geometry"/>
                </mxCell>
                <mxCell id="6g_5wwBGzpHhpwhZQn2z-19" value="&lt;b&gt;Role&lt;/b&gt;&lt;br style=&quot;font-size: 30px;&quot;&gt;&lt;font style=&quot;font-size: 25px;&quot;&gt;&amp;lt;entity&amp;gt;&lt;/font&gt;" style="ellipse;whiteSpace=wrap;html=1;aspect=fixed;fontSize=30;sketch=1;curveFitting=1;jiggle=2;fillColor=#ae59d9;strokeColor=#9673a6;fillStyle=solid;" parent="1" vertex="1">
                    <mxGeometry x="1970" y="275" width="200" height="200" as="geometry"/>
                </mxCell>
                <mxCell id="6g_5wwBGzpHhpwhZQn2z-20" value="&lt;b&gt;Email&lt;/b&gt;&lt;br style=&quot;font-size: 30px;&quot;&gt;&lt;font style=&quot;font-size: 25px;&quot;&gt;&amp;lt;entity&amp;gt;&lt;/font&gt;" style="ellipse;whiteSpace=wrap;html=1;aspect=fixed;fontSize=30;sketch=1;curveFitting=1;jiggle=2;fillColor=#a034d5;strokeColor=#9673a6;fillStyle=solid;" parent="1" vertex="1">
                    <mxGeometry x="1960" y="790" width="200" height="200" as="geometry"/>
                </mxCell>
                <mxCell id="6g_5wwBGzpHhpwhZQn2z-22" value="&lt;b&gt;Email&lt;/b&gt;&lt;br style=&quot;font-size: 30px;&quot;&gt;&lt;font style=&quot;font-size: 25px;&quot;&gt;&amp;lt;entity&amp;gt;&lt;/font&gt;" style="ellipse;whiteSpace=wrap;html=1;aspect=fixed;fontSize=30;sketch=1;curveFitting=1;jiggle=2;fillColor=#8737ae;strokeColor=#9673a6;fillStyle=solid;" parent="1" vertex="1">
                    <mxGeometry x="1520" y="1230" width="200" height="200" as="geometry"/>
                </mxCell>
                <mxCell id="6g_5wwBGzpHhpwhZQn2z-23" value="&lt;b&gt;Home Address&lt;/b&gt;&lt;br style=&quot;font-size: 30px;&quot;&gt;&lt;font style=&quot;font-size: 25px;&quot;&gt;&amp;lt;entity&amp;gt;&lt;/font&gt;" style="ellipse;whiteSpace=wrap;html=1;aspect=fixed;fontSize=30;sketch=1;curveFitting=1;jiggle=2;fillColor=#853caa;strokeColor=#9673a6;fillStyle=solid;" parent="1" vertex="1">
                    <mxGeometry x="1520" y="1470" width="200" height="200" as="geometry"/>
                </mxCell>
            </root>
        </mxGraphModel>
    </diagram>
    <diagram id="zLNknTnu3T-vcu3h0Ken" name="Authentication y Authorization">
        <mxGraphModel dx="2049" dy="802" grid="1" gridSize="10" guides="1" tooltips="1" connect="1" arrows="1" fold="1" page="0" pageScale="1" pageWidth="2000" pageHeight="2000" math="0" shadow="0">
            <root>
                <mxCell id="0"/>
                <mxCell id="1" parent="0"/>
                <mxCell id="Ia8xqUX6N_ZcnNxt00nR-1" value="User [AR]" style="shape=table;startSize=30;container=1;collapsible=1;childLayout=tableLayout;fixedRows=1;rowLines=0;fontStyle=1;align=center;resizeLast=1;fillColor=#cb843a;strokeColor=#d79b00;sketch=1;curveFitting=1;jiggle=2;fillStyle=solid;rounded=1;" parent="1" vertex="1">
                    <mxGeometry x="40" y="40" width="180" height="180" as="geometry"/>
                </mxCell>
                <mxCell id="Ia8xqUX6N_ZcnNxt00nR-2" value="" style="shape=tableRow;horizontal=0;startSize=0;swimlaneHead=0;swimlaneBody=0;fillColor=none;collapsible=0;dropTarget=0;points=[[0,0.5],[1,0.5]];portConstraint=eastwest;top=0;left=0;right=0;bottom=1;strokeColor=#D79B00;" parent="Ia8xqUX6N_ZcnNxt00nR-1" vertex="1">
                    <mxGeometry y="30" width="180" height="30" as="geometry"/>
                </mxCell>
                <mxCell id="Ia8xqUX6N_ZcnNxt00nR-3" value="OV" style="shape=partialRectangle;connectable=0;fillColor=none;top=0;left=0;bottom=0;right=0;fontStyle=1;overflow=hidden;" parent="Ia8xqUX6N_ZcnNxt00nR-2" vertex="1">
                    <mxGeometry width="30" height="30" as="geometry">
                        <mxRectangle width="30" height="30" as="alternateBounds"/>
                    </mxGeometry>
                </mxCell>
                <mxCell id="Ia8xqUX6N_ZcnNxt00nR-4" value="UserID &lt;UUID&gt;" style="shape=partialRectangle;connectable=0;fillColor=none;top=0;left=0;bottom=0;right=0;align=left;spacingLeft=6;fontStyle=5;overflow=hidden;strokeColor=#D79B00;" parent="Ia8xqUX6N_ZcnNxt00nR-2" vertex="1">
                    <mxGeometry x="30" width="150" height="30" as="geometry">
                        <mxRectangle width="150" height="30" as="alternateBounds"/>
                    </mxGeometry>
                </mxCell>
                <mxCell id="Ia8xqUX6N_ZcnNxt00nR-5" value="" style="shape=tableRow;horizontal=0;startSize=0;swimlaneHead=0;swimlaneBody=0;fillColor=none;collapsible=0;dropTarget=0;points=[[0,0.5],[1,0.5]];portConstraint=eastwest;top=0;left=0;right=0;bottom=0;" parent="Ia8xqUX6N_ZcnNxt00nR-1" vertex="1">
                    <mxGeometry y="60" width="180" height="30" as="geometry"/>
                </mxCell>
                <mxCell id="Ia8xqUX6N_ZcnNxt00nR-6" value="OV" style="shape=partialRectangle;connectable=0;fillColor=none;top=0;left=0;bottom=0;right=0;editable=1;overflow=hidden;" parent="Ia8xqUX6N_ZcnNxt00nR-5" vertex="1">
                    <mxGeometry width="30" height="30" as="geometry">
                        <mxRectangle width="30" height="30" as="alternateBounds"/>
                    </mxGeometry>
                </mxCell>
                <mxCell id="Ia8xqUX6N_ZcnNxt00nR-7" value="Name &lt;string&gt;" style="shape=partialRectangle;connectable=0;fillColor=none;top=0;left=0;bottom=0;right=0;align=left;spacingLeft=6;overflow=hidden;" parent="Ia8xqUX6N_ZcnNxt00nR-5" vertex="1">
                    <mxGeometry x="30" width="150" height="30" as="geometry">
                        <mxRectangle width="150" height="30" as="alternateBounds"/>
                    </mxGeometry>
                </mxCell>
                <mxCell id="ItvjJSks6B8_alY6ILNq-1" value="" style="shape=tableRow;horizontal=0;startSize=0;swimlaneHead=0;swimlaneBody=0;fillColor=none;collapsible=0;dropTarget=0;points=[[0,0.5],[1,0.5]];portConstraint=eastwest;top=0;left=0;right=0;bottom=0;" parent="Ia8xqUX6N_ZcnNxt00nR-1" vertex="1">
                    <mxGeometry y="90" width="180" height="30" as="geometry"/>
                </mxCell>
                <mxCell id="ItvjJSks6B8_alY6ILNq-2" value="OV" style="shape=partialRectangle;connectable=0;fillColor=none;top=0;left=0;bottom=0;right=0;editable=1;overflow=hidden;" parent="ItvjJSks6B8_alY6ILNq-1" vertex="1">
                    <mxGeometry width="30" height="30" as="geometry">
                        <mxRectangle width="30" height="30" as="alternateBounds"/>
                    </mxGeometry>
                </mxCell>
                <mxCell id="ItvjJSks6B8_alY6ILNq-3" value="Email &lt;string&gt;" style="shape=partialRectangle;connectable=0;fillColor=none;top=0;left=0;bottom=0;right=0;align=left;spacingLeft=6;overflow=hidden;" parent="ItvjJSks6B8_alY6ILNq-1" vertex="1">
                    <mxGeometry x="30" width="150" height="30" as="geometry">
                        <mxRectangle width="150" height="30" as="alternateBounds"/>
                    </mxGeometry>
                </mxCell>
                <mxCell id="Ia8xqUX6N_ZcnNxt00nR-8" value="" style="shape=tableRow;horizontal=0;startSize=0;swimlaneHead=0;swimlaneBody=0;fillColor=none;collapsible=0;dropTarget=0;points=[[0,0.5],[1,0.5]];portConstraint=eastwest;top=0;left=0;right=0;bottom=0;" parent="Ia8xqUX6N_ZcnNxt00nR-1" vertex="1">
                    <mxGeometry y="120" width="180" height="30" as="geometry"/>
                </mxCell>
                <mxCell id="Ia8xqUX6N_ZcnNxt00nR-9" value="OV" style="shape=partialRectangle;connectable=0;fillColor=none;top=0;left=0;bottom=0;right=0;editable=1;overflow=hidden;" parent="Ia8xqUX6N_ZcnNxt00nR-8" vertex="1">
                    <mxGeometry width="30" height="30" as="geometry">
                        <mxRectangle width="30" height="30" as="alternateBounds"/>
                    </mxGeometry>
                </mxCell>
                <mxCell id="Ia8xqUX6N_ZcnNxt00nR-10" value="EmailVerified &lt;bool&gt;" style="shape=partialRectangle;connectable=0;fillColor=none;top=0;left=0;bottom=0;right=0;align=left;spacingLeft=6;overflow=hidden;" parent="Ia8xqUX6N_ZcnNxt00nR-8" vertex="1">
                    <mxGeometry x="30" width="150" height="30" as="geometry">
                        <mxRectangle width="150" height="30" as="alternateBounds"/>
                    </mxGeometry>
                </mxCell>
                <mxCell id="Ia8xqUX6N_ZcnNxt00nR-11" value="" style="shape=tableRow;horizontal=0;startSize=0;swimlaneHead=0;swimlaneBody=0;fillColor=none;collapsible=0;dropTarget=0;points=[[0,0.5],[1,0.5]];portConstraint=eastwest;top=0;left=0;right=0;bottom=0;" parent="Ia8xqUX6N_ZcnNxt00nR-1" vertex="1">
                    <mxGeometry y="150" width="180" height="30" as="geometry"/>
                </mxCell>
                <mxCell id="Ia8xqUX6N_ZcnNxt00nR-12" value="E" style="shape=partialRectangle;connectable=0;fillColor=none;top=0;left=0;bottom=0;right=0;editable=1;overflow=hidden;" parent="Ia8xqUX6N_ZcnNxt00nR-11" vertex="1">
                    <mxGeometry width="30" height="30" as="geometry">
                        <mxRectangle width="30" height="30" as="alternateBounds"/>
                    </mxGeometry>
                </mxCell>
                <mxCell id="Ia8xqUX6N_ZcnNxt00nR-13" value="Role" style="shape=partialRectangle;connectable=0;fillColor=none;top=0;left=0;bottom=0;right=0;align=left;spacingLeft=6;overflow=hidden;" parent="Ia8xqUX6N_ZcnNxt00nR-11" vertex="1">
                    <mxGeometry x="30" width="150" height="30" as="geometry">
                        <mxRectangle width="150" height="30" as="alternateBounds"/>
                    </mxGeometry>
                </mxCell>
                <mxCell id="lb3-pqLgfFIBTAB-m00R-1" value="UserID [VO]" style="swimlane;fontStyle=1;align=center;verticalAlign=top;childLayout=stackLayout;horizontal=1;startSize=26;horizontalStack=0;resizeParent=1;resizeParentMax=0;resizeLast=0;collapsible=1;marginBottom=0;fillColor=#2962b3;strokeColor=#6c8ebf;sketch=1;curveFitting=1;jiggle=2;fillStyle=solid;rounded=1;" parent="1" vertex="1">
                    <mxGeometry x="280" width="160" height="86" as="geometry"/>
                </mxCell>
                <mxCell id="lb3-pqLgfFIBTAB-m00R-2" value="+ value &lt;string&gt;" style="text;strokeColor=none;fillColor=none;align=left;verticalAlign=top;spacingLeft=4;spacingRight=4;overflow=hidden;rotatable=0;points=[[0,0.5],[1,0.5]];portConstraint=eastwest;" parent="lb3-pqLgfFIBTAB-m00R-1" vertex="1">
                    <mxGeometry y="26" width="160" height="26" as="geometry"/>
                </mxCell>
                <mxCell id="lb3-pqLgfFIBTAB-m00R-3" value="" style="line;strokeWidth=1;fillColor=none;align=left;verticalAlign=middle;spacingTop=-1;spacingLeft=3;spacingRight=3;rotatable=0;labelPosition=right;points=[];portConstraint=eastwest;strokeColor=inherit;" parent="lb3-pqLgfFIBTAB-m00R-1" vertex="1">
                    <mxGeometry y="52" width="160" height="8" as="geometry"/>
                </mxCell>
                <mxCell id="lb3-pqLgfFIBTAB-m00R-4" value="+ ValidateStructure" style="text;strokeColor=none;fillColor=none;align=left;verticalAlign=top;spacingLeft=4;spacingRight=4;overflow=hidden;rotatable=0;points=[[0,0.5],[1,0.5]];portConstraint=eastwest;" parent="lb3-pqLgfFIBTAB-m00R-1" vertex="1">
                    <mxGeometry y="60" width="160" height="26" as="geometry"/>
                </mxCell>
                <mxCell id="lb3-pqLgfFIBTAB-m00R-6" style="edgeStyle=orthogonalEdgeStyle;rounded=0;orthogonalLoop=1;jettySize=auto;html=1;entryX=0;entryY=0.25;entryDx=0;entryDy=0;strokeWidth=2;endArrow=classic;endFill=1;startArrow=none;startFill=0;sketch=1;curveFitting=1;jiggle=2;curved=1;" parent="1" source="Ia8xqUX6N_ZcnNxt00nR-2" target="lb3-pqLgfFIBTAB-m00R-1" edge="1">
                    <mxGeometry relative="1" as="geometry"/>
                </mxCell>
                <mxCell id="L0keZaQipKtgWy2uPg8n-1" value="Name [VO]" style="swimlane;fontStyle=1;align=center;verticalAlign=top;childLayout=stackLayout;horizontal=1;startSize=26;horizontalStack=0;resizeParent=1;resizeParentMax=0;resizeLast=0;collapsible=1;marginBottom=0;fillColor=#2962b3;strokeColor=#6c8ebf;sketch=1;curveFitting=1;jiggle=2;fillStyle=solid;rounded=1;" parent="1" vertex="1">
                    <mxGeometry x="280" y="97" width="160" height="112" as="geometry"/>
                </mxCell>
                <mxCell id="L0keZaQipKtgWy2uPg8n-2" value="+ value &lt;string&gt;" style="text;strokeColor=none;fillColor=none;align=left;verticalAlign=top;spacingLeft=4;spacingRight=4;overflow=hidden;rotatable=0;points=[[0,0.5],[1,0.5]];portConstraint=eastwest;" parent="L0keZaQipKtgWy2uPg8n-1" vertex="1">
                    <mxGeometry y="26" width="160" height="26" as="geometry"/>
                </mxCell>
                <mxCell id="L0keZaQipKtgWy2uPg8n-3" value="" style="line;strokeWidth=1;fillColor=none;align=left;verticalAlign=middle;spacingTop=-1;spacingLeft=3;spacingRight=3;rotatable=0;labelPosition=right;points=[];portConstraint=eastwest;strokeColor=inherit;" parent="L0keZaQipKtgWy2uPg8n-1" vertex="1">
                    <mxGeometry y="52" width="160" height="8" as="geometry"/>
                </mxCell>
                <mxCell id="L0keZaQipKtgWy2uPg8n-4" value="+ Required" style="text;strokeColor=none;fillColor=none;align=left;verticalAlign=top;spacingLeft=4;spacingRight=4;overflow=hidden;rotatable=0;points=[[0,0.5],[1,0.5]];portConstraint=eastwest;" parent="L0keZaQipKtgWy2uPg8n-1" vertex="1">
                    <mxGeometry y="60" width="160" height="26" as="geometry"/>
                </mxCell>
                <mxCell id="L0keZaQipKtgWy2uPg8n-18" value="+ ValidateMaxLength" style="text;strokeColor=none;fillColor=none;align=left;verticalAlign=top;spacingLeft=4;spacingRight=4;overflow=hidden;rotatable=0;points=[[0,0.5],[1,0.5]];portConstraint=eastwest;" parent="L0keZaQipKtgWy2uPg8n-1" vertex="1">
                    <mxGeometry y="86" width="160" height="26" as="geometry"/>
                </mxCell>
                <mxCell id="L0keZaQipKtgWy2uPg8n-5" style="edgeStyle=orthogonalEdgeStyle;rounded=0;orthogonalLoop=1;jettySize=auto;html=1;entryX=0.004;entryY=0.161;entryDx=0;entryDy=0;entryPerimeter=0;startArrow=none;startFill=0;endArrow=classic;endFill=1;strokeWidth=2;sketch=1;curveFitting=1;jiggle=2;" parent="1" source="Ia8xqUX6N_ZcnNxt00nR-5" target="L0keZaQipKtgWy2uPg8n-1" edge="1">
                    <mxGeometry relative="1" as="geometry"/>
                </mxCell>
                <mxCell id="L0keZaQipKtgWy2uPg8n-6" value="Email [VO]" style="swimlane;fontStyle=1;align=center;verticalAlign=top;childLayout=stackLayout;horizontal=1;startSize=26;horizontalStack=0;resizeParent=1;resizeParentMax=0;resizeLast=0;collapsible=1;marginBottom=0;fillColor=#2962b3;strokeColor=#6c8ebf;sketch=1;curveFitting=1;jiggle=2;fillStyle=solid;rounded=1;" parent="1" vertex="1">
                    <mxGeometry x="280" y="230" width="160" height="164" as="geometry"/>
                </mxCell>
                <mxCell id="L0keZaQipKtgWy2uPg8n-7" value="+ value &lt;string&gt;" style="text;strokeColor=none;fillColor=none;align=left;verticalAlign=top;spacingLeft=4;spacingRight=4;overflow=hidden;rotatable=0;points=[[0,0.5],[1,0.5]];portConstraint=eastwest;" parent="L0keZaQipKtgWy2uPg8n-6" vertex="1">
                    <mxGeometry y="26" width="160" height="26" as="geometry"/>
                </mxCell>
                <mxCell id="L0keZaQipKtgWy2uPg8n-8" value="" style="line;strokeWidth=1;fillColor=none;align=left;verticalAlign=middle;spacingTop=-1;spacingLeft=3;spacingRight=3;rotatable=0;labelPosition=right;points=[];portConstraint=eastwest;strokeColor=inherit;" parent="L0keZaQipKtgWy2uPg8n-6" vertex="1">
                    <mxGeometry y="52" width="160" height="8" as="geometry"/>
                </mxCell>
                <mxCell id="L0keZaQipKtgWy2uPg8n-9" value="+ Required" style="text;strokeColor=none;fillColor=none;align=left;verticalAlign=top;spacingLeft=4;spacingRight=4;overflow=hidden;rotatable=0;points=[[0,0.5],[1,0.5]];portConstraint=eastwest;" parent="L0keZaQipKtgWy2uPg8n-6" vertex="1">
                    <mxGeometry y="60" width="160" height="26" as="geometry"/>
                </mxCell>
                <mxCell id="L0keZaQipKtgWy2uPg8n-10" value="+ ValidateStructure" style="text;strokeColor=none;fillColor=none;align=left;verticalAlign=top;spacingLeft=4;spacingRight=4;overflow=hidden;rotatable=0;points=[[0,0.5],[1,0.5]];portConstraint=eastwest;" parent="L0keZaQipKtgWy2uPg8n-6" vertex="1">
                    <mxGeometry y="86" width="160" height="26" as="geometry"/>
                </mxCell>
                <mxCell id="L0keZaQipKtgWy2uPg8n-20" value="+ ValidateMinLength" style="text;strokeColor=none;fillColor=none;align=left;verticalAlign=top;spacingLeft=4;spacingRight=4;overflow=hidden;rotatable=0;points=[[0,0.5],[1,0.5]];portConstraint=eastwest;" parent="L0keZaQipKtgWy2uPg8n-6" vertex="1">
                    <mxGeometry y="112" width="160" height="26" as="geometry"/>
                </mxCell>
                <mxCell id="L0keZaQipKtgWy2uPg8n-21" value="+ ValidateMaxLength" style="text;strokeColor=none;fillColor=none;align=left;verticalAlign=top;spacingLeft=4;spacingRight=4;overflow=hidden;rotatable=0;points=[[0,0.5],[1,0.5]];portConstraint=eastwest;" parent="L0keZaQipKtgWy2uPg8n-6" vertex="1">
                    <mxGeometry y="138" width="160" height="26" as="geometry"/>
                </mxCell>
                <mxCell id="L0keZaQipKtgWy2uPg8n-11" style="edgeStyle=orthogonalEdgeStyle;curved=1;rounded=0;sketch=1;orthogonalLoop=1;jettySize=auto;html=1;entryX=0.004;entryY=0.132;entryDx=0;entryDy=0;entryPerimeter=0;strokeWidth=2;startArrow=none;startFill=0;endArrow=classic;endFill=1;" parent="1" source="ItvjJSks6B8_alY6ILNq-1" target="L0keZaQipKtgWy2uPg8n-6" edge="1">
                    <mxGeometry relative="1" as="geometry"/>
                </mxCell>
                <mxCell id="L0keZaQipKtgWy2uPg8n-12" value="EmailVerified [VO]" style="swimlane;fontStyle=1;align=center;verticalAlign=top;childLayout=stackLayout;horizontal=1;startSize=26;horizontalStack=0;resizeParent=1;resizeParentMax=0;resizeLast=0;collapsible=1;marginBottom=0;fillColor=#1c4b8d;strokeColor=#6c8ebf;sketch=1;curveFitting=1;jiggle=2;fillStyle=solid;rounded=1;" parent="1" vertex="1">
                    <mxGeometry x="-190" y="104" width="160" height="86" as="geometry"/>
                </mxCell>
                <mxCell id="L0keZaQipKtgWy2uPg8n-13" value="+ value &lt;bool&gt;" style="text;strokeColor=none;fillColor=none;align=left;verticalAlign=top;spacingLeft=4;spacingRight=4;overflow=hidden;rotatable=0;points=[[0,0.5],[1,0.5]];portConstraint=eastwest;" parent="L0keZaQipKtgWy2uPg8n-12" vertex="1">
                    <mxGeometry y="26" width="160" height="26" as="geometry"/>
                </mxCell>
                <mxCell id="L0keZaQipKtgWy2uPg8n-14" value="" style="line;strokeWidth=1;fillColor=none;align=left;verticalAlign=middle;spacingTop=-1;spacingLeft=3;spacingRight=3;rotatable=0;labelPosition=right;points=[];portConstraint=eastwest;strokeColor=inherit;" parent="L0keZaQipKtgWy2uPg8n-12" vertex="1">
                    <mxGeometry y="52" width="160" height="8" as="geometry"/>
                </mxCell>
                <mxCell id="L0keZaQipKtgWy2uPg8n-15" value="+ Required" style="text;strokeColor=none;fillColor=none;align=left;verticalAlign=top;spacingLeft=4;spacingRight=4;overflow=hidden;rotatable=0;points=[[0,0.5],[1,0.5]];portConstraint=eastwest;" parent="L0keZaQipKtgWy2uPg8n-12" vertex="1">
                    <mxGeometry y="60" width="160" height="26" as="geometry"/>
                </mxCell>
                <mxCell id="L0keZaQipKtgWy2uPg8n-17" style="edgeStyle=orthogonalEdgeStyle;curved=1;rounded=0;sketch=1;orthogonalLoop=1;jettySize=auto;html=1;entryX=1.007;entryY=0.14;entryDx=0;entryDy=0;entryPerimeter=0;strokeWidth=2;startArrow=none;startFill=0;endArrow=classic;endFill=1;" parent="1" source="Ia8xqUX6N_ZcnNxt00nR-8" target="L0keZaQipKtgWy2uPg8n-12" edge="1">
                    <mxGeometry relative="1" as="geometry"/>
                </mxCell>
                <mxCell id="L0keZaQipKtgWy2uPg8n-22" value="Role [E]" style="shape=table;startSize=30;container=1;collapsible=1;childLayout=tableLayout;fixedRows=1;rowLines=0;fontStyle=1;align=center;resizeLast=1;fillColor=#7d22aa;strokeColor=#9673a6;sketch=1;curveFitting=1;jiggle=2;fillStyle=solid;rounded=1;" parent="1" vertex="1">
                    <mxGeometry x="-210" y="230" width="180" height="120" as="geometry"/>
                </mxCell>
                <mxCell id="L0keZaQipKtgWy2uPg8n-23" value="" style="shape=tableRow;horizontal=0;startSize=0;swimlaneHead=0;swimlaneBody=0;fillColor=none;collapsible=0;dropTarget=0;points=[[0,0.5],[1,0.5]];portConstraint=eastwest;top=0;left=0;right=0;bottom=1;strokeColor=#9673A6;" parent="L0keZaQipKtgWy2uPg8n-22" vertex="1">
                    <mxGeometry y="30" width="180" height="30" as="geometry"/>
                </mxCell>
                <mxCell id="L0keZaQipKtgWy2uPg8n-24" value="OV" style="shape=partialRectangle;connectable=0;fillColor=none;top=0;left=0;bottom=0;right=0;fontStyle=1;overflow=hidden;" parent="L0keZaQipKtgWy2uPg8n-23" vertex="1">
                    <mxGeometry width="30" height="30" as="geometry">
                        <mxRectangle width="30" height="30" as="alternateBounds"/>
                    </mxGeometry>
                </mxCell>
                <mxCell id="L0keZaQipKtgWy2uPg8n-25" value="RoleID &lt;UUID&gt;" style="shape=partialRectangle;connectable=0;fillColor=none;top=0;left=0;bottom=0;right=0;align=left;spacingLeft=6;fontStyle=5;overflow=hidden;strokeColor=#D79B00;" parent="L0keZaQipKtgWy2uPg8n-23" vertex="1">
                    <mxGeometry x="30" width="150" height="30" as="geometry">
                        <mxRectangle width="150" height="30" as="alternateBounds"/>
                    </mxGeometry>
                </mxCell>
                <mxCell id="L0keZaQipKtgWy2uPg8n-26" value="" style="shape=tableRow;horizontal=0;startSize=0;swimlaneHead=0;swimlaneBody=0;fillColor=none;collapsible=0;dropTarget=0;points=[[0,0.5],[1,0.5]];portConstraint=eastwest;top=0;left=0;right=0;bottom=0;" parent="L0keZaQipKtgWy2uPg8n-22" vertex="1">
                    <mxGeometry y="60" width="180" height="30" as="geometry"/>
                </mxCell>
                <mxCell id="L0keZaQipKtgWy2uPg8n-27" value="OV" style="shape=partialRectangle;connectable=0;fillColor=none;top=0;left=0;bottom=0;right=0;editable=1;overflow=hidden;" parent="L0keZaQipKtgWy2uPg8n-26" vertex="1">
                    <mxGeometry width="30" height="30" as="geometry">
                        <mxRectangle width="30" height="30" as="alternateBounds"/>
                    </mxGeometry>
                </mxCell>
                <mxCell id="L0keZaQipKtgWy2uPg8n-28" value="Name &lt;string&gt;" style="shape=partialRectangle;connectable=0;fillColor=none;top=0;left=0;bottom=0;right=0;align=left;spacingLeft=6;overflow=hidden;" parent="L0keZaQipKtgWy2uPg8n-26" vertex="1">
                    <mxGeometry x="30" width="150" height="30" as="geometry">
                        <mxRectangle width="150" height="30" as="alternateBounds"/>
                    </mxGeometry>
                </mxCell>
                <mxCell id="L0keZaQipKtgWy2uPg8n-32" value="" style="shape=tableRow;horizontal=0;startSize=0;swimlaneHead=0;swimlaneBody=0;fillColor=none;collapsible=0;dropTarget=0;points=[[0,0.5],[1,0.5]];portConstraint=eastwest;top=0;left=0;right=0;bottom=0;" parent="L0keZaQipKtgWy2uPg8n-22" vertex="1">
                    <mxGeometry y="90" width="180" height="30" as="geometry"/>
                </mxCell>
                <mxCell id="L0keZaQipKtgWy2uPg8n-33" value="OV" style="shape=partialRectangle;connectable=0;fillColor=none;top=0;left=0;bottom=0;right=0;editable=1;overflow=hidden;" parent="L0keZaQipKtgWy2uPg8n-32" vertex="1">
                    <mxGeometry width="30" height="30" as="geometry">
                        <mxRectangle width="30" height="30" as="alternateBounds"/>
                    </mxGeometry>
                </mxCell>
                <mxCell id="L0keZaQipKtgWy2uPg8n-34" value="Description &lt;string&gt;" style="shape=partialRectangle;connectable=0;fillColor=none;top=0;left=0;bottom=0;right=0;align=left;spacingLeft=6;overflow=hidden;" parent="L0keZaQipKtgWy2uPg8n-32" vertex="1">
                    <mxGeometry x="30" width="150" height="30" as="geometry">
                        <mxRectangle width="150" height="30" as="alternateBounds"/>
                    </mxGeometry>
                </mxCell>
                <mxCell id="L0keZaQipKtgWy2uPg8n-38" style="edgeStyle=orthogonalEdgeStyle;curved=1;rounded=0;sketch=1;orthogonalLoop=1;jettySize=auto;html=1;entryX=0.999;entryY=0.08;entryDx=0;entryDy=0;entryPerimeter=0;strokeWidth=2;startArrow=ERone;startFill=0;endArrow=ERone;endFill=0;" parent="1" source="Ia8xqUX6N_ZcnNxt00nR-11" target="L0keZaQipKtgWy2uPg8n-22" edge="1">
                    <mxGeometry relative="1" as="geometry"/>
                </mxCell>
                <mxCell id="L0keZaQipKtgWy2uPg8n-39" value="RoleID [VO]" style="swimlane;fontStyle=1;align=center;verticalAlign=top;childLayout=stackLayout;horizontal=1;startSize=26;horizontalStack=0;resizeParent=1;resizeParentMax=0;resizeLast=0;collapsible=1;marginBottom=0;fillColor=#1c4b8d;strokeColor=#6c8ebf;sketch=1;curveFitting=1;jiggle=2;fillStyle=solid;rounded=1;" parent="1" vertex="1">
                    <mxGeometry x="-430" y="160" width="160" height="86" as="geometry"/>
                </mxCell>
                <mxCell id="L0keZaQipKtgWy2uPg8n-40" value="+ value &lt;string&gt;" style="text;strokeColor=none;fillColor=none;align=left;verticalAlign=top;spacingLeft=4;spacingRight=4;overflow=hidden;rotatable=0;points=[[0,0.5],[1,0.5]];portConstraint=eastwest;" parent="L0keZaQipKtgWy2uPg8n-39" vertex="1">
                    <mxGeometry y="26" width="160" height="26" as="geometry"/>
                </mxCell>
                <mxCell id="L0keZaQipKtgWy2uPg8n-41" value="" style="line;strokeWidth=1;fillColor=none;align=left;verticalAlign=middle;spacingTop=-1;spacingLeft=3;spacingRight=3;rotatable=0;labelPosition=right;points=[];portConstraint=eastwest;strokeColor=inherit;" parent="L0keZaQipKtgWy2uPg8n-39" vertex="1">
                    <mxGeometry y="52" width="160" height="8" as="geometry"/>
                </mxCell>
                <mxCell id="L0keZaQipKtgWy2uPg8n-42" value="+ ValidateStructure" style="text;strokeColor=none;fillColor=none;align=left;verticalAlign=top;spacingLeft=4;spacingRight=4;overflow=hidden;rotatable=0;points=[[0,0.5],[1,0.5]];portConstraint=eastwest;" parent="L0keZaQipKtgWy2uPg8n-39" vertex="1">
                    <mxGeometry y="60" width="160" height="26" as="geometry"/>
                </mxCell>
                <mxCell id="L0keZaQipKtgWy2uPg8n-43" style="edgeStyle=orthogonalEdgeStyle;curved=1;rounded=0;sketch=1;orthogonalLoop=1;jettySize=auto;html=1;entryX=1.006;entryY=0.148;entryDx=0;entryDy=0;entryPerimeter=0;strokeWidth=2;startArrow=none;startFill=0;endArrow=classic;endFill=1;" parent="1" source="L0keZaQipKtgWy2uPg8n-23" target="L0keZaQipKtgWy2uPg8n-39" edge="1">
                    <mxGeometry relative="1" as="geometry"/>
                </mxCell>
                <mxCell id="L0keZaQipKtgWy2uPg8n-44" value="Name [VO]" style="swimlane;fontStyle=1;align=center;verticalAlign=top;childLayout=stackLayout;horizontal=1;startSize=26;horizontalStack=0;resizeParent=1;resizeParentMax=0;resizeLast=0;collapsible=1;marginBottom=0;fillColor=#1c4b8d;strokeColor=#6c8ebf;sketch=1;curveFitting=1;jiggle=2;fillStyle=solid;rounded=1;" parent="1" vertex="1">
                    <mxGeometry x="-440" y="280" width="160" height="112" as="geometry"/>
                </mxCell>
                <mxCell id="L0keZaQipKtgWy2uPg8n-45" value="+ value &lt;string&gt;" style="text;strokeColor=none;fillColor=none;align=left;verticalAlign=top;spacingLeft=4;spacingRight=4;overflow=hidden;rotatable=0;points=[[0,0.5],[1,0.5]];portConstraint=eastwest;" parent="L0keZaQipKtgWy2uPg8n-44" vertex="1">
                    <mxGeometry y="26" width="160" height="26" as="geometry"/>
                </mxCell>
                <mxCell id="L0keZaQipKtgWy2uPg8n-46" value="" style="line;strokeWidth=1;fillColor=none;align=left;verticalAlign=middle;spacingTop=-1;spacingLeft=3;spacingRight=3;rotatable=0;labelPosition=right;points=[];portConstraint=eastwest;strokeColor=inherit;" parent="L0keZaQipKtgWy2uPg8n-44" vertex="1">
                    <mxGeometry y="52" width="160" height="8" as="geometry"/>
                </mxCell>
                <mxCell id="L0keZaQipKtgWy2uPg8n-47" value="+ Required" style="text;strokeColor=none;fillColor=none;align=left;verticalAlign=top;spacingLeft=4;spacingRight=4;overflow=hidden;rotatable=0;points=[[0,0.5],[1,0.5]];portConstraint=eastwest;" parent="L0keZaQipKtgWy2uPg8n-44" vertex="1">
                    <mxGeometry y="60" width="160" height="26" as="geometry"/>
                </mxCell>
                <mxCell id="L0keZaQipKtgWy2uPg8n-48" value="+ ValidateMaxLength" style="text;strokeColor=none;fillColor=none;align=left;verticalAlign=top;spacingLeft=4;spacingRight=4;overflow=hidden;rotatable=0;points=[[0,0.5],[1,0.5]];portConstraint=eastwest;" parent="L0keZaQipKtgWy2uPg8n-44" vertex="1">
                    <mxGeometry y="86" width="160" height="26" as="geometry"/>
                </mxCell>
                <mxCell id="L0keZaQipKtgWy2uPg8n-49" style="edgeStyle=orthogonalEdgeStyle;curved=1;rounded=0;sketch=1;orthogonalLoop=1;jettySize=auto;html=1;entryX=1.006;entryY=0.132;entryDx=0;entryDy=0;entryPerimeter=0;strokeWidth=2;startArrow=none;startFill=0;endArrow=classic;endFill=1;" parent="1" source="L0keZaQipKtgWy2uPg8n-26" target="L0keZaQipKtgWy2uPg8n-44" edge="1">
                    <mxGeometry relative="1" as="geometry"/>
                </mxCell>
                <mxCell id="L0keZaQipKtgWy2uPg8n-50" value="Description [VO]" style="swimlane;fontStyle=1;align=center;verticalAlign=top;childLayout=stackLayout;horizontal=1;startSize=26;horizontalStack=0;resizeParent=1;resizeParentMax=0;resizeLast=0;collapsible=1;marginBottom=0;fillColor=#1c4b8d;strokeColor=#6c8ebf;sketch=1;curveFitting=1;jiggle=2;fillStyle=solid;rounded=1;" parent="1" vertex="1">
                    <mxGeometry x="30" y="316" width="160" height="112" as="geometry"/>
                </mxCell>
                <mxCell id="L0keZaQipKtgWy2uPg8n-51" value="+ value &lt;string&gt;" style="text;strokeColor=none;fillColor=none;align=left;verticalAlign=top;spacingLeft=4;spacingRight=4;overflow=hidden;rotatable=0;points=[[0,0.5],[1,0.5]];portConstraint=eastwest;" parent="L0keZaQipKtgWy2uPg8n-50" vertex="1">
                    <mxGeometry y="26" width="160" height="26" as="geometry"/>
                </mxCell>
                <mxCell id="L0keZaQipKtgWy2uPg8n-52" value="" style="line;strokeWidth=1;fillColor=none;align=left;verticalAlign=middle;spacingTop=-1;spacingLeft=3;spacingRight=3;rotatable=0;labelPosition=right;points=[];portConstraint=eastwest;strokeColor=inherit;" parent="L0keZaQipKtgWy2uPg8n-50" vertex="1">
                    <mxGeometry y="52" width="160" height="8" as="geometry"/>
                </mxCell>
                <mxCell id="L0keZaQipKtgWy2uPg8n-53" value="+ Required" style="text;strokeColor=none;fillColor=none;align=left;verticalAlign=top;spacingLeft=4;spacingRight=4;overflow=hidden;rotatable=0;points=[[0,0.5],[1,0.5]];portConstraint=eastwest;" parent="L0keZaQipKtgWy2uPg8n-50" vertex="1">
                    <mxGeometry y="60" width="160" height="26" as="geometry"/>
                </mxCell>
                <mxCell id="L0keZaQipKtgWy2uPg8n-54" value="+ ValidateMaxLength" style="text;strokeColor=none;fillColor=none;align=left;verticalAlign=top;spacingLeft=4;spacingRight=4;overflow=hidden;rotatable=0;points=[[0,0.5],[1,0.5]];portConstraint=eastwest;" parent="L0keZaQipKtgWy2uPg8n-50" vertex="1">
                    <mxGeometry y="86" width="160" height="26" as="geometry"/>
                </mxCell>
                <mxCell id="L0keZaQipKtgWy2uPg8n-55" style="edgeStyle=orthogonalEdgeStyle;curved=1;rounded=0;sketch=1;orthogonalLoop=1;jettySize=auto;html=1;entryX=0;entryY=0.179;entryDx=0;entryDy=0;entryPerimeter=0;strokeWidth=2;startArrow=none;startFill=0;endArrow=classic;endFill=1;" parent="1" source="L0keZaQipKtgWy2uPg8n-32" target="L0keZaQipKtgWy2uPg8n-50" edge="1">
                    <mxGeometry relative="1" as="geometry"/>
                </mxCell>
            </root>
        </mxGraphModel>
    </diagram>
    <diagram name="Identity Management" id="xN01bTp0SPyAFIqAxqZJ">
        <mxGraphModel dx="2057" dy="1202" grid="1" gridSize="10" guides="1" tooltips="1" connect="1" arrows="1" fold="1" page="0" pageScale="1" pageWidth="2000" pageHeight="2000" math="0" shadow="0">
            <root>
                <mxCell id="jnL4tiyrejlrmk_pXRh7-0"/>
                <mxCell id="jnL4tiyrejlrmk_pXRh7-1" parent="jnL4tiyrejlrmk_pXRh7-0"/>
                <mxCell id="jnL4tiyrejlrmk_pXRh7-2" value="User [AR]" style="shape=table;startSize=30;container=1;collapsible=1;childLayout=tableLayout;fixedRows=1;rowLines=0;fontStyle=1;align=center;resizeLast=1;fillColor=#a76b2a;strokeColor=#d79b00;sketch=1;curveFitting=1;jiggle=2;fillStyle=solid;rounded=1;" parent="jnL4tiyrejlrmk_pXRh7-1" vertex="1">
                    <mxGeometry x="40" y="40" width="180" height="180" as="geometry"/>
                </mxCell>
                <mxCell id="jnL4tiyrejlrmk_pXRh7-3" value="" style="shape=tableRow;horizontal=0;startSize=0;swimlaneHead=0;swimlaneBody=0;fillColor=none;collapsible=0;dropTarget=0;points=[[0,0.5],[1,0.5]];portConstraint=eastwest;top=0;left=0;right=0;bottom=1;strokeColor=#D79B00;" parent="jnL4tiyrejlrmk_pXRh7-2" vertex="1">
                    <mxGeometry y="30" width="180" height="30" as="geometry"/>
                </mxCell>
                <mxCell id="jnL4tiyrejlrmk_pXRh7-4" value="OV" style="shape=partialRectangle;connectable=0;fillColor=none;top=0;left=0;bottom=0;right=0;fontStyle=1;overflow=hidden;" parent="jnL4tiyrejlrmk_pXRh7-3" vertex="1">
                    <mxGeometry width="30" height="30" as="geometry">
                        <mxRectangle width="30" height="30" as="alternateBounds"/>
                    </mxGeometry>
                </mxCell>
                <mxCell id="jnL4tiyrejlrmk_pXRh7-5" value="UserID &lt;UUID&gt;" style="shape=partialRectangle;connectable=0;fillColor=none;top=0;left=0;bottom=0;right=0;align=left;spacingLeft=6;fontStyle=5;overflow=hidden;strokeColor=#D79B00;" parent="jnL4tiyrejlrmk_pXRh7-3" vertex="1">
                    <mxGeometry x="30" width="150" height="30" as="geometry">
                        <mxRectangle width="150" height="30" as="alternateBounds"/>
                    </mxGeometry>
                </mxCell>
                <mxCell id="jnL4tiyrejlrmk_pXRh7-6" value="" style="shape=tableRow;horizontal=0;startSize=0;swimlaneHead=0;swimlaneBody=0;fillColor=none;collapsible=0;dropTarget=0;points=[[0,0.5],[1,0.5]];portConstraint=eastwest;top=0;left=0;right=0;bottom=0;" parent="jnL4tiyrejlrmk_pXRh7-2" vertex="1">
                    <mxGeometry y="60" width="180" height="30" as="geometry"/>
                </mxCell>
                <mxCell id="jnL4tiyrejlrmk_pXRh7-7" value="OV" style="shape=partialRectangle;connectable=0;fillColor=none;top=0;left=0;bottom=0;right=0;editable=1;overflow=hidden;" parent="jnL4tiyrejlrmk_pXRh7-6" vertex="1">
                    <mxGeometry width="30" height="30" as="geometry">
                        <mxRectangle width="30" height="30" as="alternateBounds"/>
                    </mxGeometry>
                </mxCell>
                <mxCell id="jnL4tiyrejlrmk_pXRh7-8" value="Name &lt;string&gt;" style="shape=partialRectangle;connectable=0;fillColor=none;top=0;left=0;bottom=0;right=0;align=left;spacingLeft=6;overflow=hidden;" parent="jnL4tiyrejlrmk_pXRh7-6" vertex="1">
                    <mxGeometry x="30" width="150" height="30" as="geometry">
                        <mxRectangle width="150" height="30" as="alternateBounds"/>
                    </mxGeometry>
                </mxCell>
                <mxCell id="jnL4tiyrejlrmk_pXRh7-9" value="" style="shape=tableRow;horizontal=0;startSize=0;swimlaneHead=0;swimlaneBody=0;fillColor=none;collapsible=0;dropTarget=0;points=[[0,0.5],[1,0.5]];portConstraint=eastwest;top=0;left=0;right=0;bottom=0;" parent="jnL4tiyrejlrmk_pXRh7-2" vertex="1">
                    <mxGeometry y="90" width="180" height="30" as="geometry"/>
                </mxCell>
                <mxCell id="jnL4tiyrejlrmk_pXRh7-10" value="OV" style="shape=partialRectangle;connectable=0;fillColor=none;top=0;left=0;bottom=0;right=0;editable=1;overflow=hidden;" parent="jnL4tiyrejlrmk_pXRh7-9" vertex="1">
                    <mxGeometry width="30" height="30" as="geometry">
                        <mxRectangle width="30" height="30" as="alternateBounds"/>
                    </mxGeometry>
                </mxCell>
                <mxCell id="jnL4tiyrejlrmk_pXRh7-11" value="HomeAddress &lt;string&gt;" style="shape=partialRectangle;connectable=0;fillColor=none;top=0;left=0;bottom=0;right=0;align=left;spacingLeft=6;overflow=hidden;" parent="jnL4tiyrejlrmk_pXRh7-9" vertex="1">
                    <mxGeometry x="30" width="150" height="30" as="geometry">
                        <mxRectangle width="150" height="30" as="alternateBounds"/>
                    </mxGeometry>
                </mxCell>
                <mxCell id="jnL4tiyrejlrmk_pXRh7-12" value="" style="shape=tableRow;horizontal=0;startSize=0;swimlaneHead=0;swimlaneBody=0;fillColor=none;collapsible=0;dropTarget=0;points=[[0,0.5],[1,0.5]];portConstraint=eastwest;top=0;left=0;right=0;bottom=0;" parent="jnL4tiyrejlrmk_pXRh7-2" vertex="1">
                    <mxGeometry y="120" width="180" height="30" as="geometry"/>
                </mxCell>
                <mxCell id="jnL4tiyrejlrmk_pXRh7-13" value="E" style="shape=partialRectangle;connectable=0;fillColor=none;top=0;left=0;bottom=0;right=0;editable=1;overflow=hidden;" parent="jnL4tiyrejlrmk_pXRh7-12" vertex="1">
                    <mxGeometry width="30" height="30" as="geometry">
                        <mxRectangle width="30" height="30" as="alternateBounds"/>
                    </mxGeometry>
                </mxCell>
                <mxCell id="jnL4tiyrejlrmk_pXRh7-14" value="Email" style="shape=partialRectangle;connectable=0;fillColor=none;top=0;left=0;bottom=0;right=0;align=left;spacingLeft=6;overflow=hidden;" parent="jnL4tiyrejlrmk_pXRh7-12" vertex="1">
                    <mxGeometry x="30" width="150" height="30" as="geometry">
                        <mxRectangle width="150" height="30" as="alternateBounds"/>
                    </mxGeometry>
                </mxCell>
                <mxCell id="jnL4tiyrejlrmk_pXRh7-15" value="" style="shape=tableRow;horizontal=0;startSize=0;swimlaneHead=0;swimlaneBody=0;fillColor=none;collapsible=0;dropTarget=0;points=[[0,0.5],[1,0.5]];portConstraint=eastwest;top=0;left=0;right=0;bottom=0;" parent="jnL4tiyrejlrmk_pXRh7-2" vertex="1">
                    <mxGeometry y="150" width="180" height="30" as="geometry"/>
                </mxCell>
                <mxCell id="jnL4tiyrejlrmk_pXRh7-16" value="E" style="shape=partialRectangle;connectable=0;fillColor=none;top=0;left=0;bottom=0;right=0;editable=1;overflow=hidden;" parent="jnL4tiyrejlrmk_pXRh7-15" vertex="1">
                    <mxGeometry width="30" height="30" as="geometry">
                        <mxRectangle width="30" height="30" as="alternateBounds"/>
                    </mxGeometry>
                </mxCell>
                <mxCell id="jnL4tiyrejlrmk_pXRh7-17" value="Phone" style="shape=partialRectangle;connectable=0;fillColor=none;top=0;left=0;bottom=0;right=0;align=left;spacingLeft=6;overflow=hidden;" parent="jnL4tiyrejlrmk_pXRh7-15" vertex="1">
                    <mxGeometry x="30" width="150" height="30" as="geometry">
                        <mxRectangle width="150" height="30" as="alternateBounds"/>
                    </mxGeometry>
                </mxCell>
                <mxCell id="jnL4tiyrejlrmk_pXRh7-18" value="UserID [VO]" style="swimlane;fontStyle=1;align=center;verticalAlign=top;childLayout=stackLayout;horizontal=1;startSize=26;horizontalStack=0;resizeParent=1;resizeParentMax=0;resizeLast=0;collapsible=1;marginBottom=0;fillColor=#1755ab;strokeColor=#6c8ebf;sketch=1;curveFitting=1;jiggle=2;fillStyle=solid;rounded=1;" parent="jnL4tiyrejlrmk_pXRh7-1" vertex="1">
                    <mxGeometry x="280" width="160" height="86" as="geometry"/>
                </mxCell>
                <mxCell id="jnL4tiyrejlrmk_pXRh7-19" value="+ value &lt;string&gt;" style="text;strokeColor=none;fillColor=none;align=left;verticalAlign=top;spacingLeft=4;spacingRight=4;overflow=hidden;rotatable=0;points=[[0,0.5],[1,0.5]];portConstraint=eastwest;" parent="jnL4tiyrejlrmk_pXRh7-18" vertex="1">
                    <mxGeometry y="26" width="160" height="26" as="geometry"/>
                </mxCell>
                <mxCell id="jnL4tiyrejlrmk_pXRh7-20" value="" style="line;strokeWidth=1;fillColor=none;align=left;verticalAlign=middle;spacingTop=-1;spacingLeft=3;spacingRight=3;rotatable=0;labelPosition=right;points=[];portConstraint=eastwest;strokeColor=inherit;" parent="jnL4tiyrejlrmk_pXRh7-18" vertex="1">
                    <mxGeometry y="52" width="160" height="8" as="geometry"/>
                </mxCell>
                <mxCell id="jnL4tiyrejlrmk_pXRh7-21" value="+ ValidateStructure" style="text;strokeColor=none;fillColor=none;align=left;verticalAlign=top;spacingLeft=4;spacingRight=4;overflow=hidden;rotatable=0;points=[[0,0.5],[1,0.5]];portConstraint=eastwest;" parent="jnL4tiyrejlrmk_pXRh7-18" vertex="1">
                    <mxGeometry y="60" width="160" height="26" as="geometry"/>
                </mxCell>
                <mxCell id="jnL4tiyrejlrmk_pXRh7-22" style="edgeStyle=orthogonalEdgeStyle;rounded=0;orthogonalLoop=1;jettySize=auto;html=1;entryX=0;entryY=0.25;entryDx=0;entryDy=0;strokeWidth=2;endArrow=classic;endFill=1;startArrow=none;startFill=0;sketch=1;curveFitting=1;jiggle=2;curved=1;" parent="jnL4tiyrejlrmk_pXRh7-1" source="jnL4tiyrejlrmk_pXRh7-3" target="jnL4tiyrejlrmk_pXRh7-18" edge="1">
                    <mxGeometry relative="1" as="geometry"/>
                </mxCell>
                <mxCell id="jnL4tiyrejlrmk_pXRh7-23" value="Name [VO]" style="swimlane;fontStyle=1;align=center;verticalAlign=top;childLayout=stackLayout;horizontal=1;startSize=26;horizontalStack=0;resizeParent=1;resizeParentMax=0;resizeLast=0;collapsible=1;marginBottom=0;fillColor=#1755ab;strokeColor=#6c8ebf;sketch=1;curveFitting=1;jiggle=2;fillStyle=solid;rounded=1;" parent="jnL4tiyrejlrmk_pXRh7-1" vertex="1">
                    <mxGeometry x="280" y="97" width="160" height="112" as="geometry"/>
                </mxCell>
                <mxCell id="jnL4tiyrejlrmk_pXRh7-24" value="+ value &lt;string&gt;" style="text;strokeColor=none;fillColor=none;align=left;verticalAlign=top;spacingLeft=4;spacingRight=4;overflow=hidden;rotatable=0;points=[[0,0.5],[1,0.5]];portConstraint=eastwest;" parent="jnL4tiyrejlrmk_pXRh7-23" vertex="1">
                    <mxGeometry y="26" width="160" height="26" as="geometry"/>
                </mxCell>
                <mxCell id="jnL4tiyrejlrmk_pXRh7-25" value="" style="line;strokeWidth=1;fillColor=none;align=left;verticalAlign=middle;spacingTop=-1;spacingLeft=3;spacingRight=3;rotatable=0;labelPosition=right;points=[];portConstraint=eastwest;strokeColor=inherit;" parent="jnL4tiyrejlrmk_pXRh7-23" vertex="1">
                    <mxGeometry y="52" width="160" height="8" as="geometry"/>
                </mxCell>
                <mxCell id="jnL4tiyrejlrmk_pXRh7-26" value="+ Required" style="text;strokeColor=none;fillColor=none;align=left;verticalAlign=top;spacingLeft=4;spacingRight=4;overflow=hidden;rotatable=0;points=[[0,0.5],[1,0.5]];portConstraint=eastwest;" parent="jnL4tiyrejlrmk_pXRh7-23" vertex="1">
                    <mxGeometry y="60" width="160" height="26" as="geometry"/>
                </mxCell>
                <mxCell id="jnL4tiyrejlrmk_pXRh7-27" value="+ ValidateMaxLength" style="text;strokeColor=none;fillColor=none;align=left;verticalAlign=top;spacingLeft=4;spacingRight=4;overflow=hidden;rotatable=0;points=[[0,0.5],[1,0.5]];portConstraint=eastwest;" parent="jnL4tiyrejlrmk_pXRh7-23" vertex="1">
                    <mxGeometry y="86" width="160" height="26" as="geometry"/>
                </mxCell>
                <mxCell id="jnL4tiyrejlrmk_pXRh7-28" style="edgeStyle=orthogonalEdgeStyle;rounded=0;orthogonalLoop=1;jettySize=auto;html=1;entryX=0.004;entryY=0.161;entryDx=0;entryDy=0;entryPerimeter=0;startArrow=none;startFill=0;endArrow=classic;endFill=1;strokeWidth=2;sketch=1;curveFitting=1;jiggle=2;" parent="jnL4tiyrejlrmk_pXRh7-1" source="jnL4tiyrejlrmk_pXRh7-6" target="jnL4tiyrejlrmk_pXRh7-23" edge="1">
                    <mxGeometry relative="1" as="geometry"/>
                </mxCell>
                <mxCell id="jnL4tiyrejlrmk_pXRh7-29" value="HomeAddress [VO]" style="swimlane;fontStyle=1;align=center;verticalAlign=top;childLayout=stackLayout;horizontal=1;startSize=26;horizontalStack=0;resizeParent=1;resizeParentMax=0;resizeLast=0;collapsible=1;marginBottom=0;fillColor=#1755ab;strokeColor=#6c8ebf;sketch=1;curveFitting=1;jiggle=2;fillStyle=solid;rounded=1;" parent="jnL4tiyrejlrmk_pXRh7-1" vertex="1">
                    <mxGeometry x="280" y="230" width="160" height="138" as="geometry"/>
                </mxCell>
                <mxCell id="jnL4tiyrejlrmk_pXRh7-30" value="+ value &lt;string&gt;" style="text;strokeColor=none;fillColor=none;align=left;verticalAlign=top;spacingLeft=4;spacingRight=4;overflow=hidden;rotatable=0;points=[[0,0.5],[1,0.5]];portConstraint=eastwest;" parent="jnL4tiyrejlrmk_pXRh7-29" vertex="1">
                    <mxGeometry y="26" width="160" height="26" as="geometry"/>
                </mxCell>
                <mxCell id="jnL4tiyrejlrmk_pXRh7-31" value="" style="line;strokeWidth=1;fillColor=none;align=left;verticalAlign=middle;spacingTop=-1;spacingLeft=3;spacingRight=3;rotatable=0;labelPosition=right;points=[];portConstraint=eastwest;strokeColor=inherit;" parent="jnL4tiyrejlrmk_pXRh7-29" vertex="1">
                    <mxGeometry y="52" width="160" height="8" as="geometry"/>
                </mxCell>
                <mxCell id="jnL4tiyrejlrmk_pXRh7-32" value="+ Required" style="text;strokeColor=none;fillColor=none;align=left;verticalAlign=top;spacingLeft=4;spacingRight=4;overflow=hidden;rotatable=0;points=[[0,0.5],[1,0.5]];portConstraint=eastwest;" parent="jnL4tiyrejlrmk_pXRh7-29" vertex="1">
                    <mxGeometry y="60" width="160" height="26" as="geometry"/>
                </mxCell>
                <mxCell id="jnL4tiyrejlrmk_pXRh7-34" value="+ ValidateMinLength" style="text;strokeColor=none;fillColor=none;align=left;verticalAlign=top;spacingLeft=4;spacingRight=4;overflow=hidden;rotatable=0;points=[[0,0.5],[1,0.5]];portConstraint=eastwest;" parent="jnL4tiyrejlrmk_pXRh7-29" vertex="1">
                    <mxGeometry y="86" width="160" height="26" as="geometry"/>
                </mxCell>
                <mxCell id="jnL4tiyrejlrmk_pXRh7-35" value="+ ValidateMaxLength" style="text;strokeColor=none;fillColor=none;align=left;verticalAlign=top;spacingLeft=4;spacingRight=4;overflow=hidden;rotatable=0;points=[[0,0.5],[1,0.5]];portConstraint=eastwest;" parent="jnL4tiyrejlrmk_pXRh7-29" vertex="1">
                    <mxGeometry y="112" width="160" height="26" as="geometry"/>
                </mxCell>
                <mxCell id="jnL4tiyrejlrmk_pXRh7-36" style="edgeStyle=orthogonalEdgeStyle;curved=1;rounded=0;sketch=1;orthogonalLoop=1;jettySize=auto;html=1;entryX=0.004;entryY=0.132;entryDx=0;entryDy=0;entryPerimeter=0;strokeWidth=2;startArrow=none;startFill=0;endArrow=classic;endFill=1;" parent="jnL4tiyrejlrmk_pXRh7-1" source="jnL4tiyrejlrmk_pXRh7-9" target="jnL4tiyrejlrmk_pXRh7-29" edge="1">
                    <mxGeometry relative="1" as="geometry"/>
                </mxCell>
                <mxCell id="jnL4tiyrejlrmk_pXRh7-42" value="Phone [E]" style="shape=table;startSize=30;container=1;collapsible=1;childLayout=tableLayout;fixedRows=1;rowLines=0;fontStyle=1;align=center;resizeLast=1;fillColor=#8927b9;strokeColor=#9673a6;sketch=1;curveFitting=1;jiggle=2;fillStyle=solid;rounded=1;" parent="jnL4tiyrejlrmk_pXRh7-1" vertex="1">
                    <mxGeometry x="-210" y="230" width="180" height="120" as="geometry"/>
                </mxCell>
                <mxCell id="jnL4tiyrejlrmk_pXRh7-43" value="" style="shape=tableRow;horizontal=0;startSize=0;swimlaneHead=0;swimlaneBody=0;fillColor=none;collapsible=0;dropTarget=0;points=[[0,0.5],[1,0.5]];portConstraint=eastwest;top=0;left=0;right=0;bottom=1;strokeColor=#9673A6;" parent="jnL4tiyrejlrmk_pXRh7-42" vertex="1">
                    <mxGeometry y="30" width="180" height="30" as="geometry"/>
                </mxCell>
                <mxCell id="jnL4tiyrejlrmk_pXRh7-44" value="OV" style="shape=partialRectangle;connectable=0;fillColor=none;top=0;left=0;bottom=0;right=0;fontStyle=1;overflow=hidden;" parent="jnL4tiyrejlrmk_pXRh7-43" vertex="1">
                    <mxGeometry width="30" height="30" as="geometry">
                        <mxRectangle width="30" height="30" as="alternateBounds"/>
                    </mxGeometry>
                </mxCell>
                <mxCell id="jnL4tiyrejlrmk_pXRh7-45" value="PhoneID &lt;UUID&gt;" style="shape=partialRectangle;connectable=0;fillColor=none;top=0;left=0;bottom=0;right=0;align=left;spacingLeft=6;fontStyle=5;overflow=hidden;strokeColor=#D79B00;" parent="jnL4tiyrejlrmk_pXRh7-43" vertex="1">
                    <mxGeometry x="30" width="150" height="30" as="geometry">
                        <mxRectangle width="150" height="30" as="alternateBounds"/>
                    </mxGeometry>
                </mxCell>
                <mxCell id="jnL4tiyrejlrmk_pXRh7-46" value="" style="shape=tableRow;horizontal=0;startSize=0;swimlaneHead=0;swimlaneBody=0;fillColor=none;collapsible=0;dropTarget=0;points=[[0,0.5],[1,0.5]];portConstraint=eastwest;top=0;left=0;right=0;bottom=0;" parent="jnL4tiyrejlrmk_pXRh7-42" vertex="1">
                    <mxGeometry y="60" width="180" height="30" as="geometry"/>
                </mxCell>
                <mxCell id="jnL4tiyrejlrmk_pXRh7-47" value="OV" style="shape=partialRectangle;connectable=0;fillColor=none;top=0;left=0;bottom=0;right=0;editable=1;overflow=hidden;" parent="jnL4tiyrejlrmk_pXRh7-46" vertex="1">
                    <mxGeometry width="30" height="30" as="geometry">
                        <mxRectangle width="30" height="30" as="alternateBounds"/>
                    </mxGeometry>
                </mxCell>
                <mxCell id="jnL4tiyrejlrmk_pXRh7-48" value="Phone &lt;string&gt;" style="shape=partialRectangle;connectable=0;fillColor=none;top=0;left=0;bottom=0;right=0;align=left;spacingLeft=6;overflow=hidden;" parent="jnL4tiyrejlrmk_pXRh7-46" vertex="1">
                    <mxGeometry x="30" width="150" height="30" as="geometry">
                        <mxRectangle width="150" height="30" as="alternateBounds"/>
                    </mxGeometry>
                </mxCell>
                <mxCell id="jnL4tiyrejlrmk_pXRh7-49" value="" style="shape=tableRow;horizontal=0;startSize=0;swimlaneHead=0;swimlaneBody=0;fillColor=none;collapsible=0;dropTarget=0;points=[[0,0.5],[1,0.5]];portConstraint=eastwest;top=0;left=0;right=0;bottom=0;" parent="jnL4tiyrejlrmk_pXRh7-42" vertex="1">
                    <mxGeometry y="90" width="180" height="30" as="geometry"/>
                </mxCell>
                <mxCell id="jnL4tiyrejlrmk_pXRh7-50" value="OV" style="shape=partialRectangle;connectable=0;fillColor=none;top=0;left=0;bottom=0;right=0;editable=1;overflow=hidden;" parent="jnL4tiyrejlrmk_pXRh7-49" vertex="1">
                    <mxGeometry width="30" height="30" as="geometry">
                        <mxRectangle width="30" height="30" as="alternateBounds"/>
                    </mxGeometry>
                </mxCell>
                <mxCell id="jnL4tiyrejlrmk_pXRh7-51" value="PhoneVerified &lt;bool&gt;" style="shape=partialRectangle;connectable=0;fillColor=none;top=0;left=0;bottom=0;right=0;align=left;spacingLeft=6;overflow=hidden;" parent="jnL4tiyrejlrmk_pXRh7-49" vertex="1">
                    <mxGeometry x="30" width="150" height="30" as="geometry">
                        <mxRectangle width="150" height="30" as="alternateBounds"/>
                    </mxGeometry>
                </mxCell>
                <mxCell id="jnL4tiyrejlrmk_pXRh7-52" style="edgeStyle=orthogonalEdgeStyle;curved=1;rounded=0;sketch=1;orthogonalLoop=1;jettySize=auto;html=1;entryX=0.999;entryY=0.08;entryDx=0;entryDy=0;entryPerimeter=0;strokeWidth=2;startArrow=ERone;startFill=0;endArrow=ERoneToMany;endFill=0;" parent="jnL4tiyrejlrmk_pXRh7-1" source="jnL4tiyrejlrmk_pXRh7-15" target="jnL4tiyrejlrmk_pXRh7-42" edge="1">
                    <mxGeometry relative="1" as="geometry"/>
                </mxCell>
                <mxCell id="jnL4tiyrejlrmk_pXRh7-53" value="PhoneID [VO]" style="swimlane;fontStyle=1;align=center;verticalAlign=top;childLayout=stackLayout;horizontal=1;startSize=26;horizontalStack=0;resizeParent=1;resizeParentMax=0;resizeLast=0;collapsible=1;marginBottom=0;fillColor=#1e5cb3;strokeColor=#2259a5;sketch=1;curveFitting=1;jiggle=2;fillStyle=solid;rounded=1;" parent="jnL4tiyrejlrmk_pXRh7-1" vertex="1">
                    <mxGeometry x="-440" y="263" width="160" height="86" as="geometry"/>
                </mxCell>
                <mxCell id="jnL4tiyrejlrmk_pXRh7-54" value="+ value &lt;string&gt;" style="text;strokeColor=none;fillColor=none;align=left;verticalAlign=top;spacingLeft=4;spacingRight=4;overflow=hidden;rotatable=0;points=[[0,0.5],[1,0.5]];portConstraint=eastwest;" parent="jnL4tiyrejlrmk_pXRh7-53" vertex="1">
                    <mxGeometry y="26" width="160" height="26" as="geometry"/>
                </mxCell>
                <mxCell id="jnL4tiyrejlrmk_pXRh7-55" value="" style="line;strokeWidth=1;fillColor=none;align=left;verticalAlign=middle;spacingTop=-1;spacingLeft=3;spacingRight=3;rotatable=0;labelPosition=right;points=[];portConstraint=eastwest;strokeColor=inherit;" parent="jnL4tiyrejlrmk_pXRh7-53" vertex="1">
                    <mxGeometry y="52" width="160" height="8" as="geometry"/>
                </mxCell>
                <mxCell id="jnL4tiyrejlrmk_pXRh7-56" value="+ ValidateStructure" style="text;strokeColor=none;fillColor=none;align=left;verticalAlign=top;spacingLeft=4;spacingRight=4;overflow=hidden;rotatable=0;points=[[0,0.5],[1,0.5]];portConstraint=eastwest;" parent="jnL4tiyrejlrmk_pXRh7-53" vertex="1">
                    <mxGeometry y="60" width="160" height="26" as="geometry"/>
                </mxCell>
                <mxCell id="jnL4tiyrejlrmk_pXRh7-57" style="edgeStyle=orthogonalEdgeStyle;curved=1;rounded=0;sketch=1;orthogonalLoop=1;jettySize=auto;html=1;entryX=1.006;entryY=0.148;entryDx=0;entryDy=0;entryPerimeter=0;strokeWidth=2;startArrow=none;startFill=0;endArrow=classic;endFill=1;" parent="jnL4tiyrejlrmk_pXRh7-1" source="jnL4tiyrejlrmk_pXRh7-43" target="jnL4tiyrejlrmk_pXRh7-53" edge="1">
                    <mxGeometry relative="1" as="geometry"/>
                </mxCell>
                <mxCell id="jnL4tiyrejlrmk_pXRh7-58" value="Phone [VO]" style="swimlane;fontStyle=1;align=center;verticalAlign=top;childLayout=stackLayout;horizontal=1;startSize=26;horizontalStack=0;resizeParent=1;resizeParentMax=0;resizeLast=0;collapsible=1;marginBottom=0;fillColor=#1e5cb3;strokeColor=#2259a5;sketch=1;curveFitting=1;jiggle=2;fillStyle=solid;rounded=1;" parent="jnL4tiyrejlrmk_pXRh7-1" vertex="1">
                    <mxGeometry x="-440" y="370" width="160" height="138" as="geometry"/>
                </mxCell>
                <mxCell id="jnL4tiyrejlrmk_pXRh7-59" value="+ value &lt;string&gt;" style="text;strokeColor=none;fillColor=none;align=left;verticalAlign=top;spacingLeft=4;spacingRight=4;overflow=hidden;rotatable=0;points=[[0,0.5],[1,0.5]];portConstraint=eastwest;" parent="jnL4tiyrejlrmk_pXRh7-58" vertex="1">
                    <mxGeometry y="26" width="160" height="26" as="geometry"/>
                </mxCell>
                <mxCell id="jnL4tiyrejlrmk_pXRh7-60" value="" style="line;strokeWidth=1;fillColor=none;align=left;verticalAlign=middle;spacingTop=-1;spacingLeft=3;spacingRight=3;rotatable=0;labelPosition=right;points=[];portConstraint=eastwest;strokeColor=inherit;" parent="jnL4tiyrejlrmk_pXRh7-58" vertex="1">
                    <mxGeometry y="52" width="160" height="8" as="geometry"/>
                </mxCell>
                <mxCell id="jnL4tiyrejlrmk_pXRh7-61" value="+ Required" style="text;strokeColor=none;fillColor=none;align=left;verticalAlign=top;spacingLeft=4;spacingRight=4;overflow=hidden;rotatable=0;points=[[0,0.5],[1,0.5]];portConstraint=eastwest;" parent="jnL4tiyrejlrmk_pXRh7-58" vertex="1">
                    <mxGeometry y="60" width="160" height="26" as="geometry"/>
                </mxCell>
                <mxCell id="jnL4tiyrejlrmk_pXRh7-62" value="+ ValidateMinLength" style="text;strokeColor=none;fillColor=none;align=left;verticalAlign=top;spacingLeft=4;spacingRight=4;overflow=hidden;rotatable=0;points=[[0,0.5],[1,0.5]];portConstraint=eastwest;" parent="jnL4tiyrejlrmk_pXRh7-58" vertex="1">
                    <mxGeometry y="86" width="160" height="26" as="geometry"/>
                </mxCell>
                <mxCell id="vCF-tJXQ_tm7rAbX0271-5" value="+ ValidateMaxLength" style="text;strokeColor=none;fillColor=none;align=left;verticalAlign=top;spacingLeft=4;spacingRight=4;overflow=hidden;rotatable=0;points=[[0,0.5],[1,0.5]];portConstraint=eastwest;" parent="jnL4tiyrejlrmk_pXRh7-58" vertex="1">
                    <mxGeometry y="112" width="160" height="26" as="geometry"/>
                </mxCell>
                <mxCell id="jnL4tiyrejlrmk_pXRh7-63" style="edgeStyle=orthogonalEdgeStyle;curved=1;rounded=0;sketch=1;orthogonalLoop=1;jettySize=auto;html=1;entryX=1.006;entryY=0.132;entryDx=0;entryDy=0;entryPerimeter=0;strokeWidth=2;startArrow=none;startFill=0;endArrow=classic;endFill=1;" parent="jnL4tiyrejlrmk_pXRh7-1" source="jnL4tiyrejlrmk_pXRh7-46" target="jnL4tiyrejlrmk_pXRh7-58" edge="1">
                    <mxGeometry relative="1" as="geometry"/>
                </mxCell>
                <mxCell id="jnL4tiyrejlrmk_pXRh7-64" value="PhoneVerified [VO]" style="swimlane;fontStyle=1;align=center;verticalAlign=top;childLayout=stackLayout;horizontal=1;startSize=26;horizontalStack=0;resizeParent=1;resizeParentMax=0;resizeLast=0;collapsible=1;marginBottom=0;fillColor=#265ba6;strokeColor=#6c8ebf;sketch=1;curveFitting=1;jiggle=2;fillStyle=solid;rounded=1;" parent="jnL4tiyrejlrmk_pXRh7-1" vertex="1">
                    <mxGeometry x="30" y="319" width="160" height="86" as="geometry"/>
                </mxCell>
                <mxCell id="jnL4tiyrejlrmk_pXRh7-65" value="+ value &lt;bool&gt;" style="text;strokeColor=none;fillColor=none;align=left;verticalAlign=top;spacingLeft=4;spacingRight=4;overflow=hidden;rotatable=0;points=[[0,0.5],[1,0.5]];portConstraint=eastwest;" parent="jnL4tiyrejlrmk_pXRh7-64" vertex="1">
                    <mxGeometry y="26" width="160" height="26" as="geometry"/>
                </mxCell>
                <mxCell id="jnL4tiyrejlrmk_pXRh7-66" value="" style="line;strokeWidth=1;fillColor=none;align=left;verticalAlign=middle;spacingTop=-1;spacingLeft=3;spacingRight=3;rotatable=0;labelPosition=right;points=[];portConstraint=eastwest;strokeColor=inherit;" parent="jnL4tiyrejlrmk_pXRh7-64" vertex="1">
                    <mxGeometry y="52" width="160" height="8" as="geometry"/>
                </mxCell>
                <mxCell id="jnL4tiyrejlrmk_pXRh7-67" value="+ Required" style="text;strokeColor=none;fillColor=none;align=left;verticalAlign=top;spacingLeft=4;spacingRight=4;overflow=hidden;rotatable=0;points=[[0,0.5],[1,0.5]];portConstraint=eastwest;" parent="jnL4tiyrejlrmk_pXRh7-64" vertex="1">
                    <mxGeometry y="60" width="160" height="26" as="geometry"/>
                </mxCell>
                <mxCell id="jnL4tiyrejlrmk_pXRh7-69" style="edgeStyle=orthogonalEdgeStyle;curved=1;rounded=0;sketch=1;orthogonalLoop=1;jettySize=auto;html=1;entryX=0;entryY=0.179;entryDx=0;entryDy=0;entryPerimeter=0;strokeWidth=2;startArrow=none;startFill=0;endArrow=classic;endFill=1;" parent="jnL4tiyrejlrmk_pXRh7-1" source="jnL4tiyrejlrmk_pXRh7-49" target="jnL4tiyrejlrmk_pXRh7-64" edge="1">
                    <mxGeometry relative="1" as="geometry"/>
                </mxCell>
                <mxCell id="fbAugeg7bkl14EE63Kos-0" value="Email [E]" style="shape=table;startSize=30;container=1;collapsible=1;childLayout=tableLayout;fixedRows=1;rowLines=0;fontStyle=1;align=center;resizeLast=1;fillColor=#8927b9;strokeColor=#9673a6;sketch=1;curveFitting=1;jiggle=2;fillStyle=solid;rounded=1;" parent="jnL4tiyrejlrmk_pXRh7-1" vertex="1">
                    <mxGeometry x="-220" y="40" width="180" height="120" as="geometry"/>
                </mxCell>
                <mxCell id="fbAugeg7bkl14EE63Kos-1" value="" style="shape=tableRow;horizontal=0;startSize=0;swimlaneHead=0;swimlaneBody=0;fillColor=none;collapsible=0;dropTarget=0;points=[[0,0.5],[1,0.5]];portConstraint=eastwest;top=0;left=0;right=0;bottom=1;strokeColor=#9673A6;" parent="fbAugeg7bkl14EE63Kos-0" vertex="1">
                    <mxGeometry y="30" width="180" height="30" as="geometry"/>
                </mxCell>
                <mxCell id="fbAugeg7bkl14EE63Kos-2" value="OV" style="shape=partialRectangle;connectable=0;fillColor=none;top=0;left=0;bottom=0;right=0;fontStyle=1;overflow=hidden;" parent="fbAugeg7bkl14EE63Kos-1" vertex="1">
                    <mxGeometry width="30" height="30" as="geometry">
                        <mxRectangle width="30" height="30" as="alternateBounds"/>
                    </mxGeometry>
                </mxCell>
                <mxCell id="fbAugeg7bkl14EE63Kos-3" value="EmailID &lt;UUID&gt;" style="shape=partialRectangle;connectable=0;fillColor=none;top=0;left=0;bottom=0;right=0;align=left;spacingLeft=6;fontStyle=5;overflow=hidden;strokeColor=#D79B00;" parent="fbAugeg7bkl14EE63Kos-1" vertex="1">
                    <mxGeometry x="30" width="150" height="30" as="geometry">
                        <mxRectangle width="150" height="30" as="alternateBounds"/>
                    </mxGeometry>
                </mxCell>
                <mxCell id="fbAugeg7bkl14EE63Kos-4" value="" style="shape=tableRow;horizontal=0;startSize=0;swimlaneHead=0;swimlaneBody=0;fillColor=none;collapsible=0;dropTarget=0;points=[[0,0.5],[1,0.5]];portConstraint=eastwest;top=0;left=0;right=0;bottom=0;" parent="fbAugeg7bkl14EE63Kos-0" vertex="1">
                    <mxGeometry y="60" width="180" height="30" as="geometry"/>
                </mxCell>
                <mxCell id="fbAugeg7bkl14EE63Kos-5" value="OV" style="shape=partialRectangle;connectable=0;fillColor=none;top=0;left=0;bottom=0;right=0;editable=1;overflow=hidden;" parent="fbAugeg7bkl14EE63Kos-4" vertex="1">
                    <mxGeometry width="30" height="30" as="geometry">
                        <mxRectangle width="30" height="30" as="alternateBounds"/>
                    </mxGeometry>
                </mxCell>
                <mxCell id="fbAugeg7bkl14EE63Kos-6" value="Email &lt;string&gt;" style="shape=partialRectangle;connectable=0;fillColor=none;top=0;left=0;bottom=0;right=0;align=left;spacingLeft=6;overflow=hidden;" parent="fbAugeg7bkl14EE63Kos-4" vertex="1">
                    <mxGeometry x="30" width="150" height="30" as="geometry">
                        <mxRectangle width="150" height="30" as="alternateBounds"/>
                    </mxGeometry>
                </mxCell>
                <mxCell id="fbAugeg7bkl14EE63Kos-7" value="" style="shape=tableRow;horizontal=0;startSize=0;swimlaneHead=0;swimlaneBody=0;fillColor=none;collapsible=0;dropTarget=0;points=[[0,0.5],[1,0.5]];portConstraint=eastwest;top=0;left=0;right=0;bottom=0;" parent="fbAugeg7bkl14EE63Kos-0" vertex="1">
                    <mxGeometry y="90" width="180" height="30" as="geometry"/>
                </mxCell>
                <mxCell id="fbAugeg7bkl14EE63Kos-8" value="OV" style="shape=partialRectangle;connectable=0;fillColor=none;top=0;left=0;bottom=0;right=0;editable=1;overflow=hidden;" parent="fbAugeg7bkl14EE63Kos-7" vertex="1">
                    <mxGeometry width="30" height="30" as="geometry">
                        <mxRectangle width="30" height="30" as="alternateBounds"/>
                    </mxGeometry>
                </mxCell>
                <mxCell id="fbAugeg7bkl14EE63Kos-9" value="State &lt;bool&gt;" style="shape=partialRectangle;connectable=0;fillColor=none;top=0;left=0;bottom=0;right=0;align=left;spacingLeft=6;overflow=hidden;" parent="fbAugeg7bkl14EE63Kos-7" vertex="1">
                    <mxGeometry x="30" width="150" height="30" as="geometry">
                        <mxRectangle width="150" height="30" as="alternateBounds"/>
                    </mxGeometry>
                </mxCell>
                <mxCell id="fbAugeg7bkl14EE63Kos-10" style="edgeStyle=orthogonalEdgeStyle;curved=1;rounded=0;sketch=1;orthogonalLoop=1;jettySize=auto;html=1;entryX=1.014;entryY=0.119;entryDx=0;entryDy=0;entryPerimeter=0;strokeWidth=2;startArrow=ERone;startFill=0;endArrow=ERoneToMany;endFill=0;" parent="jnL4tiyrejlrmk_pXRh7-1" source="jnL4tiyrejlrmk_pXRh7-12" target="fbAugeg7bkl14EE63Kos-0" edge="1">
                    <mxGeometry relative="1" as="geometry"/>
                </mxCell>
                <mxCell id="fbAugeg7bkl14EE63Kos-11" value="RoleID [VO]" style="swimlane;fontStyle=1;align=center;verticalAlign=top;childLayout=stackLayout;horizontal=1;startSize=26;horizontalStack=0;resizeParent=1;resizeParentMax=0;resizeLast=0;collapsible=1;marginBottom=0;fillColor=#1e5cb3;strokeColor=#2259a5;sketch=1;curveFitting=1;jiggle=2;fillStyle=solid;rounded=1;" parent="jnL4tiyrejlrmk_pXRh7-1" vertex="1">
                    <mxGeometry x="-440" y="-120" width="160" height="86" as="geometry"/>
                </mxCell>
                <mxCell id="fbAugeg7bkl14EE63Kos-12" value="+ value &lt;string&gt;" style="text;strokeColor=none;fillColor=none;align=left;verticalAlign=top;spacingLeft=4;spacingRight=4;overflow=hidden;rotatable=0;points=[[0,0.5],[1,0.5]];portConstraint=eastwest;" parent="fbAugeg7bkl14EE63Kos-11" vertex="1">
                    <mxGeometry y="26" width="160" height="26" as="geometry"/>
                </mxCell>
                <mxCell id="fbAugeg7bkl14EE63Kos-13" value="" style="line;strokeWidth=1;fillColor=none;align=left;verticalAlign=middle;spacingTop=-1;spacingLeft=3;spacingRight=3;rotatable=0;labelPosition=right;points=[];portConstraint=eastwest;strokeColor=inherit;" parent="fbAugeg7bkl14EE63Kos-11" vertex="1">
                    <mxGeometry y="52" width="160" height="8" as="geometry"/>
                </mxCell>
                <mxCell id="fbAugeg7bkl14EE63Kos-14" value="+ ValidateStructure" style="text;strokeColor=none;fillColor=none;align=left;verticalAlign=top;spacingLeft=4;spacingRight=4;overflow=hidden;rotatable=0;points=[[0,0.5],[1,0.5]];portConstraint=eastwest;" parent="fbAugeg7bkl14EE63Kos-11" vertex="1">
                    <mxGeometry y="60" width="160" height="26" as="geometry"/>
                </mxCell>
                <mxCell id="fbAugeg7bkl14EE63Kos-15" style="edgeStyle=orthogonalEdgeStyle;curved=1;rounded=0;sketch=1;orthogonalLoop=1;jettySize=auto;html=1;entryX=1;entryY=0.116;entryDx=0;entryDy=0;entryPerimeter=0;strokeWidth=2;startArrow=none;startFill=0;endArrow=classic;endFill=1;" parent="jnL4tiyrejlrmk_pXRh7-1" source="fbAugeg7bkl14EE63Kos-1" target="fbAugeg7bkl14EE63Kos-11" edge="1">
                    <mxGeometry relative="1" as="geometry"/>
                </mxCell>
                <mxCell id="PVxuYHWs4PpkLN1CocJT-0" value="Email [VO]" style="swimlane;fontStyle=1;align=center;verticalAlign=top;childLayout=stackLayout;horizontal=1;startSize=26;horizontalStack=0;resizeParent=1;resizeParentMax=0;resizeLast=0;collapsible=1;marginBottom=0;fillColor=#1e5cb3;strokeColor=#2259a5;sketch=1;curveFitting=1;jiggle=2;fillStyle=solid;rounded=1;" parent="jnL4tiyrejlrmk_pXRh7-1" vertex="1">
                    <mxGeometry x="-440" y="-20" width="160" height="164" as="geometry"/>
                </mxCell>
                <mxCell id="PVxuYHWs4PpkLN1CocJT-1" value="+ value &lt;string&gt;" style="text;strokeColor=none;fillColor=none;align=left;verticalAlign=top;spacingLeft=4;spacingRight=4;overflow=hidden;rotatable=0;points=[[0,0.5],[1,0.5]];portConstraint=eastwest;" parent="PVxuYHWs4PpkLN1CocJT-0" vertex="1">
                    <mxGeometry y="26" width="160" height="26" as="geometry"/>
                </mxCell>
                <mxCell id="PVxuYHWs4PpkLN1CocJT-2" value="" style="line;strokeWidth=1;fillColor=none;align=left;verticalAlign=middle;spacingTop=-1;spacingLeft=3;spacingRight=3;rotatable=0;labelPosition=right;points=[];portConstraint=eastwest;strokeColor=inherit;" parent="PVxuYHWs4PpkLN1CocJT-0" vertex="1">
                    <mxGeometry y="52" width="160" height="8" as="geometry"/>
                </mxCell>
                <mxCell id="PVxuYHWs4PpkLN1CocJT-3" value="+ Required" style="text;strokeColor=none;fillColor=none;align=left;verticalAlign=top;spacingLeft=4;spacingRight=4;overflow=hidden;rotatable=0;points=[[0,0.5],[1,0.5]];portConstraint=eastwest;" parent="PVxuYHWs4PpkLN1CocJT-0" vertex="1">
                    <mxGeometry y="60" width="160" height="26" as="geometry"/>
                </mxCell>
                <mxCell id="PVxuYHWs4PpkLN1CocJT-4" value="+ ValidateStructure" style="text;strokeColor=none;fillColor=none;align=left;verticalAlign=top;spacingLeft=4;spacingRight=4;overflow=hidden;rotatable=0;points=[[0,0.5],[1,0.5]];portConstraint=eastwest;" parent="PVxuYHWs4PpkLN1CocJT-0" vertex="1">
                    <mxGeometry y="86" width="160" height="26" as="geometry"/>
                </mxCell>
                <mxCell id="PVxuYHWs4PpkLN1CocJT-5" value="+ ValidateMinLength" style="text;strokeColor=none;fillColor=none;align=left;verticalAlign=top;spacingLeft=4;spacingRight=4;overflow=hidden;rotatable=0;points=[[0,0.5],[1,0.5]];portConstraint=eastwest;" parent="PVxuYHWs4PpkLN1CocJT-0" vertex="1">
                    <mxGeometry y="112" width="160" height="26" as="geometry"/>
                </mxCell>
                <mxCell id="PVxuYHWs4PpkLN1CocJT-6" value="+ ValidateMaxLength" style="text;strokeColor=none;fillColor=none;align=left;verticalAlign=top;spacingLeft=4;spacingRight=4;overflow=hidden;rotatable=0;points=[[0,0.5],[1,0.5]];portConstraint=eastwest;" parent="PVxuYHWs4PpkLN1CocJT-0" vertex="1">
                    <mxGeometry y="138" width="160" height="26" as="geometry"/>
                </mxCell>
                <mxCell id="PVxuYHWs4PpkLN1CocJT-7" style="edgeStyle=orthogonalEdgeStyle;curved=1;rounded=0;sketch=1;orthogonalLoop=1;jettySize=auto;html=1;entryX=1.01;entryY=0.084;entryDx=0;entryDy=0;entryPerimeter=0;strokeWidth=2;startArrow=none;startFill=0;endArrow=classic;endFill=1;" parent="jnL4tiyrejlrmk_pXRh7-1" source="fbAugeg7bkl14EE63Kos-4" target="PVxuYHWs4PpkLN1CocJT-0" edge="1">
                    <mxGeometry relative="1" as="geometry"/>
                </mxCell>
                <mxCell id="vCF-tJXQ_tm7rAbX0271-0" value="State [VO]" style="swimlane;fontStyle=1;align=center;verticalAlign=top;childLayout=stackLayout;horizontal=1;startSize=26;horizontalStack=0;resizeParent=1;resizeParentMax=0;resizeLast=0;collapsible=1;marginBottom=0;fillColor=#1e5cb3;strokeColor=#2259a5;sketch=1;curveFitting=1;jiggle=2;fillStyle=solid;rounded=1;" parent="jnL4tiyrejlrmk_pXRh7-1" vertex="1">
                    <mxGeometry x="-440" y="160" width="160" height="86" as="geometry"/>
                </mxCell>
                <mxCell id="vCF-tJXQ_tm7rAbX0271-1" value="+ value &lt;bool&gt;" style="text;strokeColor=none;fillColor=none;align=left;verticalAlign=top;spacingLeft=4;spacingRight=4;overflow=hidden;rotatable=0;points=[[0,0.5],[1,0.5]];portConstraint=eastwest;" parent="vCF-tJXQ_tm7rAbX0271-0" vertex="1">
                    <mxGeometry y="26" width="160" height="26" as="geometry"/>
                </mxCell>
                <mxCell id="vCF-tJXQ_tm7rAbX0271-2" value="" style="line;strokeWidth=1;fillColor=none;align=left;verticalAlign=middle;spacingTop=-1;spacingLeft=3;spacingRight=3;rotatable=0;labelPosition=right;points=[];portConstraint=eastwest;strokeColor=inherit;" parent="vCF-tJXQ_tm7rAbX0271-0" vertex="1">
                    <mxGeometry y="52" width="160" height="8" as="geometry"/>
                </mxCell>
                <mxCell id="vCF-tJXQ_tm7rAbX0271-3" value="+ Required" style="text;strokeColor=none;fillColor=none;align=left;verticalAlign=top;spacingLeft=4;spacingRight=4;overflow=hidden;rotatable=0;points=[[0,0.5],[1,0.5]];portConstraint=eastwest;" parent="vCF-tJXQ_tm7rAbX0271-0" vertex="1">
                    <mxGeometry y="60" width="160" height="26" as="geometry"/>
                </mxCell>
                <mxCell id="vCF-tJXQ_tm7rAbX0271-4" style="edgeStyle=orthogonalEdgeStyle;curved=1;rounded=0;sketch=1;orthogonalLoop=1;jettySize=auto;html=1;entryX=0.997;entryY=0.184;entryDx=0;entryDy=0;entryPerimeter=0;strokeWidth=2;startArrow=none;startFill=0;endArrow=classic;endFill=1;" parent="jnL4tiyrejlrmk_pXRh7-1" source="fbAugeg7bkl14EE63Kos-7" target="vCF-tJXQ_tm7rAbX0271-0" edge="1">
                    <mxGeometry relative="1" as="geometry"/>
                </mxCell>
            </root>
        </mxGraphModel>
    </diagram>
    <diagram id="enSp1J0pswdg4edtiE6K" name="Contacts Management">
        <mxGraphModel dx="2057" dy="1202" grid="1" gridSize="10" guides="1" tooltips="1" connect="1" arrows="1" fold="1" page="0" pageScale="1" pageWidth="2000" pageHeight="2000" math="0" shadow="0">
            <root>
                <mxCell id="0"/>
                <mxCell id="1" parent="0"/>
                <mxCell id="aZHyCQAQ9oExqhm1M_VZ-1" value="Customer [AR]" style="shape=table;startSize=30;container=1;collapsible=1;childLayout=tableLayout;fixedRows=1;rowLines=0;fontStyle=1;align=center;resizeLast=1;fillColor=#b2722e;strokeColor=#d79b00;sketch=1;curveFitting=1;jiggle=2;fillStyle=solid;rounded=1;" parent="1" vertex="1">
                    <mxGeometry x="40" y="40" width="180" height="240" as="geometry"/>
                </mxCell>
                <mxCell id="aZHyCQAQ9oExqhm1M_VZ-2" value="" style="shape=tableRow;horizontal=0;startSize=0;swimlaneHead=0;swimlaneBody=0;fillColor=none;collapsible=0;dropTarget=0;points=[[0,0.5],[1,0.5]];portConstraint=eastwest;top=0;left=0;right=0;bottom=1;strokeColor=#D79B00;" parent="aZHyCQAQ9oExqhm1M_VZ-1" vertex="1">
                    <mxGeometry y="30" width="180" height="30" as="geometry"/>
                </mxCell>
                <mxCell id="aZHyCQAQ9oExqhm1M_VZ-3" value="OV" style="shape=partialRectangle;connectable=0;fillColor=none;top=0;left=0;bottom=0;right=0;fontStyle=1;overflow=hidden;" parent="aZHyCQAQ9oExqhm1M_VZ-2" vertex="1">
                    <mxGeometry width="30" height="30" as="geometry">
                        <mxRectangle width="30" height="30" as="alternateBounds"/>
                    </mxGeometry>
                </mxCell>
                <mxCell id="aZHyCQAQ9oExqhm1M_VZ-4" value="CustomerID &lt;UUID&gt;" style="shape=partialRectangle;connectable=0;fillColor=none;top=0;left=0;bottom=0;right=0;align=left;spacingLeft=6;fontStyle=5;overflow=hidden;strokeColor=#D79B00;" parent="aZHyCQAQ9oExqhm1M_VZ-2" vertex="1">
                    <mxGeometry x="30" width="150" height="30" as="geometry">
                        <mxRectangle width="150" height="30" as="alternateBounds"/>
                    </mxGeometry>
                </mxCell>
                <mxCell id="aZHyCQAQ9oExqhm1M_VZ-5" value="" style="shape=tableRow;horizontal=0;startSize=0;swimlaneHead=0;swimlaneBody=0;fillColor=none;collapsible=0;dropTarget=0;points=[[0,0.5],[1,0.5]];portConstraint=eastwest;top=0;left=0;right=0;bottom=0;" parent="aZHyCQAQ9oExqhm1M_VZ-1" vertex="1">
                    <mxGeometry y="60" width="180" height="30" as="geometry"/>
                </mxCell>
                <mxCell id="aZHyCQAQ9oExqhm1M_VZ-6" value="E" style="shape=partialRectangle;connectable=0;fillColor=none;top=0;left=0;bottom=0;right=0;editable=1;overflow=hidden;" parent="aZHyCQAQ9oExqhm1M_VZ-5" vertex="1">
                    <mxGeometry width="30" height="30" as="geometry">
                        <mxRectangle width="30" height="30" as="alternateBounds"/>
                    </mxGeometry>
                </mxCell>
                <mxCell id="aZHyCQAQ9oExqhm1M_VZ-7" value="Phone" style="shape=partialRectangle;connectable=0;fillColor=none;top=0;left=0;bottom=0;right=0;align=left;spacingLeft=6;overflow=hidden;" parent="aZHyCQAQ9oExqhm1M_VZ-5" vertex="1">
                    <mxGeometry x="30" width="150" height="30" as="geometry">
                        <mxRectangle width="150" height="30" as="alternateBounds"/>
                    </mxGeometry>
                </mxCell>
                <mxCell id="aZHyCQAQ9oExqhm1M_VZ-8" value="" style="shape=tableRow;horizontal=0;startSize=0;swimlaneHead=0;swimlaneBody=0;fillColor=none;collapsible=0;dropTarget=0;points=[[0,0.5],[1,0.5]];portConstraint=eastwest;top=0;left=0;right=0;bottom=0;" parent="aZHyCQAQ9oExqhm1M_VZ-1" vertex="1">
                    <mxGeometry y="90" width="180" height="30" as="geometry"/>
                </mxCell>
                <mxCell id="aZHyCQAQ9oExqhm1M_VZ-9" value="E" style="shape=partialRectangle;connectable=0;fillColor=none;top=0;left=0;bottom=0;right=0;editable=1;overflow=hidden;" parent="aZHyCQAQ9oExqhm1M_VZ-8" vertex="1">
                    <mxGeometry width="30" height="30" as="geometry">
                        <mxRectangle width="30" height="30" as="alternateBounds"/>
                    </mxGeometry>
                </mxCell>
                <mxCell id="aZHyCQAQ9oExqhm1M_VZ-10" value="Email" style="shape=partialRectangle;connectable=0;fillColor=none;top=0;left=0;bottom=0;right=0;align=left;spacingLeft=6;overflow=hidden;" parent="aZHyCQAQ9oExqhm1M_VZ-8" vertex="1">
                    <mxGeometry x="30" width="150" height="30" as="geometry">
                        <mxRectangle width="150" height="30" as="alternateBounds"/>
                    </mxGeometry>
                </mxCell>
                <mxCell id="aZHyCQAQ9oExqhm1M_VZ-11" value="" style="shape=tableRow;horizontal=0;startSize=0;swimlaneHead=0;swimlaneBody=0;fillColor=none;collapsible=0;dropTarget=0;points=[[0,0.5],[1,0.5]];portConstraint=eastwest;top=0;left=0;right=0;bottom=0;" parent="aZHyCQAQ9oExqhm1M_VZ-1" vertex="1">
                    <mxGeometry y="120" width="180" height="30" as="geometry"/>
                </mxCell>
                <mxCell id="aZHyCQAQ9oExqhm1M_VZ-12" value="E" style="shape=partialRectangle;connectable=0;fillColor=none;top=0;left=0;bottom=0;right=0;editable=1;overflow=hidden;" parent="aZHyCQAQ9oExqhm1M_VZ-11" vertex="1">
                    <mxGeometry width="30" height="30" as="geometry">
                        <mxRectangle width="30" height="30" as="alternateBounds"/>
                    </mxGeometry>
                </mxCell>
                <mxCell id="aZHyCQAQ9oExqhm1M_VZ-13" value="HomeAddress" style="shape=partialRectangle;connectable=0;fillColor=none;top=0;left=0;bottom=0;right=0;align=left;spacingLeft=6;overflow=hidden;" parent="aZHyCQAQ9oExqhm1M_VZ-11" vertex="1">
                    <mxGeometry x="30" width="150" height="30" as="geometry">
                        <mxRectangle width="150" height="30" as="alternateBounds"/>
                    </mxGeometry>
                </mxCell>
                <mxCell id="aZHyCQAQ9oExqhm1M_VZ-14" value="" style="shape=tableRow;horizontal=0;startSize=0;swimlaneHead=0;swimlaneBody=0;fillColor=none;collapsible=0;dropTarget=0;points=[[0,0.5],[1,0.5]];portConstraint=eastwest;top=0;left=0;right=0;bottom=0;" parent="aZHyCQAQ9oExqhm1M_VZ-1" vertex="1">
                    <mxGeometry y="150" width="180" height="30" as="geometry"/>
                </mxCell>
                <mxCell id="aZHyCQAQ9oExqhm1M_VZ-15" value="OV" style="shape=partialRectangle;connectable=0;fillColor=none;top=0;left=0;bottom=0;right=0;editable=1;overflow=hidden;" parent="aZHyCQAQ9oExqhm1M_VZ-14" vertex="1">
                    <mxGeometry width="30" height="30" as="geometry">
                        <mxRectangle width="30" height="30" as="alternateBounds"/>
                    </mxGeometry>
                </mxCell>
                <mxCell id="aZHyCQAQ9oExqhm1M_VZ-16" value="Name &lt;string&gt;" style="shape=partialRectangle;connectable=0;fillColor=none;top=0;left=0;bottom=0;right=0;align=left;spacingLeft=6;overflow=hidden;" parent="aZHyCQAQ9oExqhm1M_VZ-14" vertex="1">
                    <mxGeometry x="30" width="150" height="30" as="geometry">
                        <mxRectangle width="150" height="30" as="alternateBounds"/>
                    </mxGeometry>
                </mxCell>
                <mxCell id="KdlOUioSzNJeoNrvCxGt-1" value="" style="shape=tableRow;horizontal=0;startSize=0;swimlaneHead=0;swimlaneBody=0;fillColor=none;collapsible=0;dropTarget=0;points=[[0,0.5],[1,0.5]];portConstraint=eastwest;top=0;left=0;right=0;bottom=0;" parent="aZHyCQAQ9oExqhm1M_VZ-1" vertex="1">
                    <mxGeometry y="180" width="180" height="30" as="geometry"/>
                </mxCell>
                <mxCell id="KdlOUioSzNJeoNrvCxGt-2" value="OV" style="shape=partialRectangle;connectable=0;fillColor=none;top=0;left=0;bottom=0;right=0;editable=1;overflow=hidden;" parent="KdlOUioSzNJeoNrvCxGt-1" vertex="1">
                    <mxGeometry width="30" height="30" as="geometry">
                        <mxRectangle width="30" height="30" as="alternateBounds"/>
                    </mxGeometry>
                </mxCell>
                <mxCell id="KdlOUioSzNJeoNrvCxGt-3" value="Birthday &lt;date&gt;" style="shape=partialRectangle;connectable=0;fillColor=none;top=0;left=0;bottom=0;right=0;align=left;spacingLeft=6;overflow=hidden;" parent="KdlOUioSzNJeoNrvCxGt-1" vertex="1">
                    <mxGeometry x="30" width="150" height="30" as="geometry">
                        <mxRectangle width="150" height="30" as="alternateBounds"/>
                    </mxGeometry>
                </mxCell>
                <mxCell id="KdlOUioSzNJeoNrvCxGt-4" value="" style="shape=tableRow;horizontal=0;startSize=0;swimlaneHead=0;swimlaneBody=0;fillColor=none;collapsible=0;dropTarget=0;points=[[0,0.5],[1,0.5]];portConstraint=eastwest;top=0;left=0;right=0;bottom=0;" parent="aZHyCQAQ9oExqhm1M_VZ-1" vertex="1">
                    <mxGeometry y="210" width="180" height="30" as="geometry"/>
                </mxCell>
                <mxCell id="KdlOUioSzNJeoNrvCxGt-5" value="OV" style="shape=partialRectangle;connectable=0;fillColor=none;top=0;left=0;bottom=0;right=0;editable=1;overflow=hidden;" parent="KdlOUioSzNJeoNrvCxGt-4" vertex="1">
                    <mxGeometry width="30" height="30" as="geometry">
                        <mxRectangle width="30" height="30" as="alternateBounds"/>
                    </mxGeometry>
                </mxCell>
                <mxCell id="KdlOUioSzNJeoNrvCxGt-6" value="State &lt;bool&gt;" style="shape=partialRectangle;connectable=0;fillColor=none;top=0;left=0;bottom=0;right=0;align=left;spacingLeft=6;overflow=hidden;" parent="KdlOUioSzNJeoNrvCxGt-4" vertex="1">
                    <mxGeometry x="30" width="150" height="30" as="geometry">
                        <mxRectangle width="150" height="30" as="alternateBounds"/>
                    </mxGeometry>
                </mxCell>
                <mxCell id="ndgTGwTP8_TKGf2lj7u0-1" value="Phone [E]" style="shape=table;startSize=30;container=1;collapsible=1;childLayout=tableLayout;fixedRows=1;rowLines=0;fontStyle=1;align=center;resizeLast=1;fillColor=#7f2fa7;strokeColor=#9673a6;sketch=1;curveFitting=1;jiggle=2;fillStyle=solid;rounded=1;" parent="1" vertex="1">
                    <mxGeometry x="-260" width="180" height="120" as="geometry"/>
                </mxCell>
                <mxCell id="ndgTGwTP8_TKGf2lj7u0-2" value="" style="shape=tableRow;horizontal=0;startSize=0;swimlaneHead=0;swimlaneBody=0;fillColor=none;collapsible=0;dropTarget=0;points=[[0,0.5],[1,0.5]];portConstraint=eastwest;top=0;left=0;right=0;bottom=1;strokeColor=#9673A6;" parent="ndgTGwTP8_TKGf2lj7u0-1" vertex="1">
                    <mxGeometry y="30" width="180" height="30" as="geometry"/>
                </mxCell>
                <mxCell id="ndgTGwTP8_TKGf2lj7u0-3" value="OV" style="shape=partialRectangle;connectable=0;fillColor=none;top=0;left=0;bottom=0;right=0;fontStyle=1;overflow=hidden;" parent="ndgTGwTP8_TKGf2lj7u0-2" vertex="1">
                    <mxGeometry width="30" height="30" as="geometry">
                        <mxRectangle width="30" height="30" as="alternateBounds"/>
                    </mxGeometry>
                </mxCell>
                <mxCell id="ndgTGwTP8_TKGf2lj7u0-4" value="PhoneID &lt;UUID&gt;" style="shape=partialRectangle;connectable=0;fillColor=none;top=0;left=0;bottom=0;right=0;align=left;spacingLeft=6;fontStyle=5;overflow=hidden;strokeColor=#D79B00;" parent="ndgTGwTP8_TKGf2lj7u0-2" vertex="1">
                    <mxGeometry x="30" width="150" height="30" as="geometry">
                        <mxRectangle width="150" height="30" as="alternateBounds"/>
                    </mxGeometry>
                </mxCell>
                <mxCell id="ndgTGwTP8_TKGf2lj7u0-5" value="" style="shape=tableRow;horizontal=0;startSize=0;swimlaneHead=0;swimlaneBody=0;fillColor=none;collapsible=0;dropTarget=0;points=[[0,0.5],[1,0.5]];portConstraint=eastwest;top=0;left=0;right=0;bottom=0;" parent="ndgTGwTP8_TKGf2lj7u0-1" vertex="1">
                    <mxGeometry y="60" width="180" height="30" as="geometry"/>
                </mxCell>
                <mxCell id="ndgTGwTP8_TKGf2lj7u0-6" value="OV" style="shape=partialRectangle;connectable=0;fillColor=none;top=0;left=0;bottom=0;right=0;editable=1;overflow=hidden;" parent="ndgTGwTP8_TKGf2lj7u0-5" vertex="1">
                    <mxGeometry width="30" height="30" as="geometry">
                        <mxRectangle width="30" height="30" as="alternateBounds"/>
                    </mxGeometry>
                </mxCell>
                <mxCell id="ndgTGwTP8_TKGf2lj7u0-7" value="Phone &lt;string&gt;" style="shape=partialRectangle;connectable=0;fillColor=none;top=0;left=0;bottom=0;right=0;align=left;spacingLeft=6;overflow=hidden;" parent="ndgTGwTP8_TKGf2lj7u0-5" vertex="1">
                    <mxGeometry x="30" width="150" height="30" as="geometry">
                        <mxRectangle width="150" height="30" as="alternateBounds"/>
                    </mxGeometry>
                </mxCell>
                <mxCell id="ndgTGwTP8_TKGf2lj7u0-8" value="" style="shape=tableRow;horizontal=0;startSize=0;swimlaneHead=0;swimlaneBody=0;fillColor=none;collapsible=0;dropTarget=0;points=[[0,0.5],[1,0.5]];portConstraint=eastwest;top=0;left=0;right=0;bottom=0;" parent="ndgTGwTP8_TKGf2lj7u0-1" vertex="1">
                    <mxGeometry y="90" width="180" height="30" as="geometry"/>
                </mxCell>
                <mxCell id="ndgTGwTP8_TKGf2lj7u0-9" value="OV" style="shape=partialRectangle;connectable=0;fillColor=none;top=0;left=0;bottom=0;right=0;editable=1;overflow=hidden;" parent="ndgTGwTP8_TKGf2lj7u0-8" vertex="1">
                    <mxGeometry width="30" height="30" as="geometry">
                        <mxRectangle width="30" height="30" as="alternateBounds"/>
                    </mxGeometry>
                </mxCell>
                <mxCell id="ndgTGwTP8_TKGf2lj7u0-10" value="State &lt;string&gt;" style="shape=partialRectangle;connectable=0;fillColor=none;top=0;left=0;bottom=0;right=0;align=left;spacingLeft=6;overflow=hidden;" parent="ndgTGwTP8_TKGf2lj7u0-8" vertex="1">
                    <mxGeometry x="30" width="150" height="30" as="geometry">
                        <mxRectangle width="150" height="30" as="alternateBounds"/>
                    </mxGeometry>
                </mxCell>
                <mxCell id="sC_46NcB2rwX0GOuJXey-1" value="Email [E]" style="shape=table;startSize=30;container=1;collapsible=1;childLayout=tableLayout;fixedRows=1;rowLines=0;fontStyle=1;align=center;resizeLast=1;fillColor=#742999;strokeColor=#9673a6;sketch=1;curveFitting=1;jiggle=2;fillStyle=solid;rounded=1;" parent="1" vertex="1">
                    <mxGeometry x="-260" y="342" width="180" height="120" as="geometry"/>
                </mxCell>
                <mxCell id="sC_46NcB2rwX0GOuJXey-2" value="" style="shape=tableRow;horizontal=0;startSize=0;swimlaneHead=0;swimlaneBody=0;fillColor=none;collapsible=0;dropTarget=0;points=[[0,0.5],[1,0.5]];portConstraint=eastwest;top=0;left=0;right=0;bottom=1;strokeColor=#9673A6;" parent="sC_46NcB2rwX0GOuJXey-1" vertex="1">
                    <mxGeometry y="30" width="180" height="30" as="geometry"/>
                </mxCell>
                <mxCell id="sC_46NcB2rwX0GOuJXey-3" value="OV" style="shape=partialRectangle;connectable=0;fillColor=none;top=0;left=0;bottom=0;right=0;fontStyle=1;overflow=hidden;" parent="sC_46NcB2rwX0GOuJXey-2" vertex="1">
                    <mxGeometry width="30" height="30" as="geometry">
                        <mxRectangle width="30" height="30" as="alternateBounds"/>
                    </mxGeometry>
                </mxCell>
                <mxCell id="sC_46NcB2rwX0GOuJXey-4" value="EmailID &lt;UUID&gt;" style="shape=partialRectangle;connectable=0;fillColor=none;top=0;left=0;bottom=0;right=0;align=left;spacingLeft=6;fontStyle=5;overflow=hidden;strokeColor=#D79B00;" parent="sC_46NcB2rwX0GOuJXey-2" vertex="1">
                    <mxGeometry x="30" width="150" height="30" as="geometry">
                        <mxRectangle width="150" height="30" as="alternateBounds"/>
                    </mxGeometry>
                </mxCell>
                <mxCell id="sC_46NcB2rwX0GOuJXey-5" value="" style="shape=tableRow;horizontal=0;startSize=0;swimlaneHead=0;swimlaneBody=0;fillColor=none;collapsible=0;dropTarget=0;points=[[0,0.5],[1,0.5]];portConstraint=eastwest;top=0;left=0;right=0;bottom=0;" parent="sC_46NcB2rwX0GOuJXey-1" vertex="1">
                    <mxGeometry y="60" width="180" height="30" as="geometry"/>
                </mxCell>
                <mxCell id="sC_46NcB2rwX0GOuJXey-6" value="OV" style="shape=partialRectangle;connectable=0;fillColor=none;top=0;left=0;bottom=0;right=0;editable=1;overflow=hidden;" parent="sC_46NcB2rwX0GOuJXey-5" vertex="1">
                    <mxGeometry width="30" height="30" as="geometry">
                        <mxRectangle width="30" height="30" as="alternateBounds"/>
                    </mxGeometry>
                </mxCell>
                <mxCell id="sC_46NcB2rwX0GOuJXey-7" value="Email &lt;string&gt;" style="shape=partialRectangle;connectable=0;fillColor=none;top=0;left=0;bottom=0;right=0;align=left;spacingLeft=6;overflow=hidden;" parent="sC_46NcB2rwX0GOuJXey-5" vertex="1">
                    <mxGeometry x="30" width="150" height="30" as="geometry">
                        <mxRectangle width="150" height="30" as="alternateBounds"/>
                    </mxGeometry>
                </mxCell>
                <mxCell id="sC_46NcB2rwX0GOuJXey-8" value="" style="shape=tableRow;horizontal=0;startSize=0;swimlaneHead=0;swimlaneBody=0;fillColor=none;collapsible=0;dropTarget=0;points=[[0,0.5],[1,0.5]];portConstraint=eastwest;top=0;left=0;right=0;bottom=0;" parent="sC_46NcB2rwX0GOuJXey-1" vertex="1">
                    <mxGeometry y="90" width="180" height="30" as="geometry"/>
                </mxCell>
                <mxCell id="sC_46NcB2rwX0GOuJXey-9" value="OV" style="shape=partialRectangle;connectable=0;fillColor=none;top=0;left=0;bottom=0;right=0;editable=1;overflow=hidden;" parent="sC_46NcB2rwX0GOuJXey-8" vertex="1">
                    <mxGeometry width="30" height="30" as="geometry">
                        <mxRectangle width="30" height="30" as="alternateBounds"/>
                    </mxGeometry>
                </mxCell>
                <mxCell id="sC_46NcB2rwX0GOuJXey-10" value="State &lt;bool&gt;" style="shape=partialRectangle;connectable=0;fillColor=none;top=0;left=0;bottom=0;right=0;align=left;spacingLeft=6;overflow=hidden;" parent="sC_46NcB2rwX0GOuJXey-8" vertex="1">
                    <mxGeometry x="30" width="150" height="30" as="geometry">
                        <mxRectangle width="150" height="30" as="alternateBounds"/>
                    </mxGeometry>
                </mxCell>
                <mxCell id="sC_46NcB2rwX0GOuJXey-11" value="HomeAddress [E]" style="shape=table;startSize=30;container=1;collapsible=1;childLayout=tableLayout;fixedRows=1;rowLines=0;fontStyle=1;align=center;resizeLast=1;fillColor=#8436ab;strokeColor=#9673a6;sketch=1;curveFitting=1;jiggle=2;fillStyle=solid;rounded=1;" parent="1" vertex="1">
                    <mxGeometry x="-260" y="490" width="180" height="120" as="geometry"/>
                </mxCell>
                <mxCell id="sC_46NcB2rwX0GOuJXey-12" value="" style="shape=tableRow;horizontal=0;startSize=0;swimlaneHead=0;swimlaneBody=0;fillColor=none;collapsible=0;dropTarget=0;points=[[0,0.5],[1,0.5]];portConstraint=eastwest;top=0;left=0;right=0;bottom=1;strokeColor=#9673A6;" parent="sC_46NcB2rwX0GOuJXey-11" vertex="1">
                    <mxGeometry y="30" width="180" height="30" as="geometry"/>
                </mxCell>
                <mxCell id="sC_46NcB2rwX0GOuJXey-13" value="OV" style="shape=partialRectangle;connectable=0;fillColor=none;top=0;left=0;bottom=0;right=0;fontStyle=1;overflow=hidden;" parent="sC_46NcB2rwX0GOuJXey-12" vertex="1">
                    <mxGeometry width="30" height="30" as="geometry">
                        <mxRectangle width="30" height="30" as="alternateBounds"/>
                    </mxGeometry>
                </mxCell>
                <mxCell id="sC_46NcB2rwX0GOuJXey-14" value="HomeAddressID &lt;UUID&gt;" style="shape=partialRectangle;connectable=0;fillColor=none;top=0;left=0;bottom=0;right=0;align=left;spacingLeft=6;fontStyle=5;overflow=hidden;strokeColor=#D79B00;" parent="sC_46NcB2rwX0GOuJXey-12" vertex="1">
                    <mxGeometry x="30" width="150" height="30" as="geometry">
                        <mxRectangle width="150" height="30" as="alternateBounds"/>
                    </mxGeometry>
                </mxCell>
                <mxCell id="sC_46NcB2rwX0GOuJXey-15" value="" style="shape=tableRow;horizontal=0;startSize=0;swimlaneHead=0;swimlaneBody=0;fillColor=none;collapsible=0;dropTarget=0;points=[[0,0.5],[1,0.5]];portConstraint=eastwest;top=0;left=0;right=0;bottom=0;" parent="sC_46NcB2rwX0GOuJXey-11" vertex="1">
                    <mxGeometry y="60" width="180" height="30" as="geometry"/>
                </mxCell>
                <mxCell id="sC_46NcB2rwX0GOuJXey-16" value="OV" style="shape=partialRectangle;connectable=0;fillColor=none;top=0;left=0;bottom=0;right=0;editable=1;overflow=hidden;" parent="sC_46NcB2rwX0GOuJXey-15" vertex="1">
                    <mxGeometry width="30" height="30" as="geometry">
                        <mxRectangle width="30" height="30" as="alternateBounds"/>
                    </mxGeometry>
                </mxCell>
                <mxCell id="sC_46NcB2rwX0GOuJXey-17" value="Address &lt;string&gt;" style="shape=partialRectangle;connectable=0;fillColor=none;top=0;left=0;bottom=0;right=0;align=left;spacingLeft=6;overflow=hidden;" parent="sC_46NcB2rwX0GOuJXey-15" vertex="1">
                    <mxGeometry x="30" width="150" height="30" as="geometry">
                        <mxRectangle width="150" height="30" as="alternateBounds"/>
                    </mxGeometry>
                </mxCell>
                <mxCell id="sC_46NcB2rwX0GOuJXey-18" value="" style="shape=tableRow;horizontal=0;startSize=0;swimlaneHead=0;swimlaneBody=0;fillColor=none;collapsible=0;dropTarget=0;points=[[0,0.5],[1,0.5]];portConstraint=eastwest;top=0;left=0;right=0;bottom=0;" parent="sC_46NcB2rwX0GOuJXey-11" vertex="1">
                    <mxGeometry y="90" width="180" height="30" as="geometry"/>
                </mxCell>
                <mxCell id="sC_46NcB2rwX0GOuJXey-19" value="OV" style="shape=partialRectangle;connectable=0;fillColor=none;top=0;left=0;bottom=0;right=0;editable=1;overflow=hidden;" parent="sC_46NcB2rwX0GOuJXey-18" vertex="1">
                    <mxGeometry width="30" height="30" as="geometry">
                        <mxRectangle width="30" height="30" as="alternateBounds"/>
                    </mxGeometry>
                </mxCell>
                <mxCell id="sC_46NcB2rwX0GOuJXey-20" value="State &lt;bool&gt;" style="shape=partialRectangle;connectable=0;fillColor=none;top=0;left=0;bottom=0;right=0;align=left;spacingLeft=6;overflow=hidden;" parent="sC_46NcB2rwX0GOuJXey-18" vertex="1">
                    <mxGeometry x="30" width="150" height="30" as="geometry">
                        <mxRectangle width="150" height="30" as="alternateBounds"/>
                    </mxGeometry>
                </mxCell>
                <mxCell id="myRfeKhqnRbjFx0J5TCs-1" style="edgeStyle=orthogonalEdgeStyle;curved=1;rounded=0;sketch=1;orthogonalLoop=1;jettySize=auto;html=1;entryX=1.003;entryY=0.111;entryDx=0;entryDy=0;entryPerimeter=0;strokeWidth=2;startArrow=ERone;startFill=0;endArrow=ERoneToMany;endFill=0;" parent="1" source="aZHyCQAQ9oExqhm1M_VZ-5" target="ndgTGwTP8_TKGf2lj7u0-1" edge="1">
                    <mxGeometry relative="1" as="geometry"/>
                </mxCell>
                <mxCell id="myRfeKhqnRbjFx0J5TCs-2" style="edgeStyle=orthogonalEdgeStyle;curved=1;rounded=0;sketch=1;orthogonalLoop=1;jettySize=auto;html=1;entryX=0.5;entryY=0;entryDx=0;entryDy=0;strokeWidth=2;startArrow=ERone;startFill=0;endArrow=ERoneToMany;endFill=0;" parent="1" source="aZHyCQAQ9oExqhm1M_VZ-8" target="sC_46NcB2rwX0GOuJXey-1" edge="1">
                    <mxGeometry relative="1" as="geometry"/>
                </mxCell>
                <mxCell id="myRfeKhqnRbjFx0J5TCs-4" style="edgeStyle=orthogonalEdgeStyle;curved=1;rounded=0;sketch=1;orthogonalLoop=1;jettySize=auto;html=1;entryX=1.003;entryY=0.151;entryDx=0;entryDy=0;entryPerimeter=0;strokeWidth=2;startArrow=ERone;startFill=0;endArrow=ERoneToMany;endFill=0;" parent="1" source="aZHyCQAQ9oExqhm1M_VZ-11" target="sC_46NcB2rwX0GOuJXey-11" edge="1">
                    <mxGeometry relative="1" as="geometry"/>
                </mxCell>
                <mxCell id="VcDKMbfNq8tKaRerIRWi-1" value="CustomerID [VO]" style="swimlane;fontStyle=1;align=center;verticalAlign=top;childLayout=stackLayout;horizontal=1;startSize=26;horizontalStack=0;resizeParent=1;resizeParentMax=0;resizeLast=0;collapsible=1;marginBottom=0;fillColor=#2156a1;strokeColor=#6c8ebf;sketch=1;curveFitting=1;jiggle=2;fillStyle=solid;rounded=1;" parent="1" vertex="1">
                    <mxGeometry x="310" y="-10" width="160" height="86" as="geometry"/>
                </mxCell>
                <mxCell id="VcDKMbfNq8tKaRerIRWi-2" value="+ value &lt;string&gt;" style="text;strokeColor=none;fillColor=none;align=left;verticalAlign=top;spacingLeft=4;spacingRight=4;overflow=hidden;rotatable=0;points=[[0,0.5],[1,0.5]];portConstraint=eastwest;" parent="VcDKMbfNq8tKaRerIRWi-1" vertex="1">
                    <mxGeometry y="26" width="160" height="26" as="geometry"/>
                </mxCell>
                <mxCell id="VcDKMbfNq8tKaRerIRWi-3" value="" style="line;strokeWidth=1;fillColor=none;align=left;verticalAlign=middle;spacingTop=-1;spacingLeft=3;spacingRight=3;rotatable=0;labelPosition=right;points=[];portConstraint=eastwest;strokeColor=inherit;" parent="VcDKMbfNq8tKaRerIRWi-1" vertex="1">
                    <mxGeometry y="52" width="160" height="8" as="geometry"/>
                </mxCell>
                <mxCell id="VcDKMbfNq8tKaRerIRWi-4" value="+ ValidateStructure" style="text;strokeColor=none;fillColor=none;align=left;verticalAlign=top;spacingLeft=4;spacingRight=4;overflow=hidden;rotatable=0;points=[[0,0.5],[1,0.5]];portConstraint=eastwest;" parent="VcDKMbfNq8tKaRerIRWi-1" vertex="1">
                    <mxGeometry y="60" width="160" height="26" as="geometry"/>
                </mxCell>
                <mxCell id="VcDKMbfNq8tKaRerIRWi-5" value="PhoneID [VO]" style="swimlane;fontStyle=1;align=center;verticalAlign=top;childLayout=stackLayout;horizontal=1;startSize=26;horizontalStack=0;resizeParent=1;resizeParentMax=0;resizeLast=0;collapsible=1;marginBottom=0;fillColor=#19519f;strokeColor=#6c8ebf;sketch=1;curveFitting=1;jiggle=2;fillStyle=solid;rounded=1;" parent="1" vertex="1">
                    <mxGeometry x="-480" y="-100" width="160" height="86" as="geometry"/>
                </mxCell>
                <mxCell id="VcDKMbfNq8tKaRerIRWi-6" value="+ value &lt;string&gt;" style="text;strokeColor=none;fillColor=none;align=left;verticalAlign=top;spacingLeft=4;spacingRight=4;overflow=hidden;rotatable=0;points=[[0,0.5],[1,0.5]];portConstraint=eastwest;" parent="VcDKMbfNq8tKaRerIRWi-5" vertex="1">
                    <mxGeometry y="26" width="160" height="26" as="geometry"/>
                </mxCell>
                <mxCell id="VcDKMbfNq8tKaRerIRWi-7" value="" style="line;strokeWidth=1;fillColor=none;align=left;verticalAlign=middle;spacingTop=-1;spacingLeft=3;spacingRight=3;rotatable=0;labelPosition=right;points=[];portConstraint=eastwest;strokeColor=inherit;" parent="VcDKMbfNq8tKaRerIRWi-5" vertex="1">
                    <mxGeometry y="52" width="160" height="8" as="geometry"/>
                </mxCell>
                <mxCell id="VcDKMbfNq8tKaRerIRWi-8" value="+ ValidateStructure" style="text;strokeColor=none;fillColor=none;align=left;verticalAlign=top;spacingLeft=4;spacingRight=4;overflow=hidden;rotatable=0;points=[[0,0.5],[1,0.5]];portConstraint=eastwest;" parent="VcDKMbfNq8tKaRerIRWi-5" vertex="1">
                    <mxGeometry y="60" width="160" height="26" as="geometry"/>
                </mxCell>
                <mxCell id="VcDKMbfNq8tKaRerIRWi-9" value="EmailID [VO]" style="swimlane;fontStyle=1;align=center;verticalAlign=top;childLayout=stackLayout;horizontal=1;startSize=26;horizontalStack=0;resizeParent=1;resizeParentMax=0;resizeLast=0;collapsible=1;marginBottom=0;fillColor=#19519f;strokeColor=#6c8ebf;sketch=1;curveFitting=1;jiggle=2;fillStyle=solid;rounded=1;" parent="1" vertex="1">
                    <mxGeometry x="-480" y="280" width="160" height="86" as="geometry"/>
                </mxCell>
                <mxCell id="VcDKMbfNq8tKaRerIRWi-10" value="+ value &lt;string&gt;" style="text;strokeColor=none;fillColor=none;align=left;verticalAlign=top;spacingLeft=4;spacingRight=4;overflow=hidden;rotatable=0;points=[[0,0.5],[1,0.5]];portConstraint=eastwest;" parent="VcDKMbfNq8tKaRerIRWi-9" vertex="1">
                    <mxGeometry y="26" width="160" height="26" as="geometry"/>
                </mxCell>
                <mxCell id="VcDKMbfNq8tKaRerIRWi-11" value="" style="line;strokeWidth=1;fillColor=none;align=left;verticalAlign=middle;spacingTop=-1;spacingLeft=3;spacingRight=3;rotatable=0;labelPosition=right;points=[];portConstraint=eastwest;strokeColor=inherit;" parent="VcDKMbfNq8tKaRerIRWi-9" vertex="1">
                    <mxGeometry y="52" width="160" height="8" as="geometry"/>
                </mxCell>
                <mxCell id="VcDKMbfNq8tKaRerIRWi-12" value="+ ValidateStructure" style="text;strokeColor=none;fillColor=none;align=left;verticalAlign=top;spacingLeft=4;spacingRight=4;overflow=hidden;rotatable=0;points=[[0,0.5],[1,0.5]];portConstraint=eastwest;" parent="VcDKMbfNq8tKaRerIRWi-9" vertex="1">
                    <mxGeometry y="60" width="160" height="26" as="geometry"/>
                </mxCell>
                <mxCell id="VcDKMbfNq8tKaRerIRWi-13" value="HomeAddressID [VO]" style="swimlane;fontStyle=1;align=center;verticalAlign=top;childLayout=stackLayout;horizontal=1;startSize=26;horizontalStack=0;resizeParent=1;resizeParentMax=0;resizeLast=0;collapsible=1;marginBottom=0;fillColor=#1b519d;strokeColor=#6c8ebf;sketch=1;curveFitting=1;jiggle=2;fillStyle=solid;rounded=1;" parent="1" vertex="1">
                    <mxGeometry x="20" y="456" width="160" height="86" as="geometry"/>
                </mxCell>
                <mxCell id="VcDKMbfNq8tKaRerIRWi-14" value="+ value &lt;string&gt;" style="text;strokeColor=none;fillColor=none;align=left;verticalAlign=top;spacingLeft=4;spacingRight=4;overflow=hidden;rotatable=0;points=[[0,0.5],[1,0.5]];portConstraint=eastwest;" parent="VcDKMbfNq8tKaRerIRWi-13" vertex="1">
                    <mxGeometry y="26" width="160" height="26" as="geometry"/>
                </mxCell>
                <mxCell id="VcDKMbfNq8tKaRerIRWi-15" value="" style="line;strokeWidth=1;fillColor=none;align=left;verticalAlign=middle;spacingTop=-1;spacingLeft=3;spacingRight=3;rotatable=0;labelPosition=right;points=[];portConstraint=eastwest;strokeColor=inherit;" parent="VcDKMbfNq8tKaRerIRWi-13" vertex="1">
                    <mxGeometry y="52" width="160" height="8" as="geometry"/>
                </mxCell>
                <mxCell id="VcDKMbfNq8tKaRerIRWi-16" value="+ ValidateStructure" style="text;strokeColor=none;fillColor=none;align=left;verticalAlign=top;spacingLeft=4;spacingRight=4;overflow=hidden;rotatable=0;points=[[0,0.5],[1,0.5]];portConstraint=eastwest;" parent="VcDKMbfNq8tKaRerIRWi-13" vertex="1">
                    <mxGeometry y="60" width="160" height="26" as="geometry"/>
                </mxCell>
                <mxCell id="VcDKMbfNq8tKaRerIRWi-17" style="edgeStyle=orthogonalEdgeStyle;curved=1;rounded=0;sketch=1;orthogonalLoop=1;jettySize=auto;html=1;entryX=0.994;entryY=0.194;entryDx=0;entryDy=0;entryPerimeter=0;strokeWidth=2;startArrow=none;startFill=0;endArrow=classic;endFill=1;" parent="1" source="ndgTGwTP8_TKGf2lj7u0-2" target="VcDKMbfNq8tKaRerIRWi-5" edge="1">
                    <mxGeometry relative="1" as="geometry"/>
                </mxCell>
                <mxCell id="VcDKMbfNq8tKaRerIRWi-18" style="edgeStyle=orthogonalEdgeStyle;curved=1;rounded=0;sketch=1;orthogonalLoop=1;jettySize=auto;html=1;entryX=0.997;entryY=0.154;entryDx=0;entryDy=0;entryPerimeter=0;strokeWidth=2;startArrow=none;startFill=0;endArrow=classic;endFill=1;" parent="1" source="sC_46NcB2rwX0GOuJXey-2" target="VcDKMbfNq8tKaRerIRWi-9" edge="1">
                    <mxGeometry relative="1" as="geometry"/>
                </mxCell>
                <mxCell id="VcDKMbfNq8tKaRerIRWi-20" style="edgeStyle=orthogonalEdgeStyle;curved=1;rounded=0;sketch=1;orthogonalLoop=1;jettySize=auto;html=1;entryX=0.003;entryY=0.148;entryDx=0;entryDy=0;entryPerimeter=0;strokeWidth=2;startArrow=none;startFill=0;endArrow=classic;endFill=1;" parent="1" source="sC_46NcB2rwX0GOuJXey-12" target="VcDKMbfNq8tKaRerIRWi-13" edge="1">
                    <mxGeometry relative="1" as="geometry"/>
                </mxCell>
                <mxCell id="37Y6TiSnS4rqnT95gHOh-1" style="edgeStyle=orthogonalEdgeStyle;curved=1;rounded=0;sketch=1;orthogonalLoop=1;jettySize=auto;html=1;entryX=0.01;entryY=0.191;entryDx=0;entryDy=0;entryPerimeter=0;strokeWidth=2;startArrow=none;startFill=0;endArrow=classic;endFill=1;" parent="1" source="aZHyCQAQ9oExqhm1M_VZ-2" target="VcDKMbfNq8tKaRerIRWi-1" edge="1">
                    <mxGeometry relative="1" as="geometry"/>
                </mxCell>
                <mxCell id="37Y6TiSnS4rqnT95gHOh-2" value="Name [VO]" style="swimlane;fontStyle=1;align=center;verticalAlign=top;childLayout=stackLayout;horizontal=1;startSize=26;horizontalStack=0;resizeParent=1;resizeParentMax=0;resizeLast=0;collapsible=1;marginBottom=0;fillColor=#2156a1;strokeColor=#6c8ebf;sketch=1;curveFitting=1;jiggle=2;fillStyle=solid;rounded=1;" parent="1" vertex="1">
                    <mxGeometry x="310" y="97" width="160" height="112" as="geometry"/>
                </mxCell>
                <mxCell id="37Y6TiSnS4rqnT95gHOh-3" value="+ value &lt;string&gt;" style="text;strokeColor=none;fillColor=none;align=left;verticalAlign=top;spacingLeft=4;spacingRight=4;overflow=hidden;rotatable=0;points=[[0,0.5],[1,0.5]];portConstraint=eastwest;" parent="37Y6TiSnS4rqnT95gHOh-2" vertex="1">
                    <mxGeometry y="26" width="160" height="26" as="geometry"/>
                </mxCell>
                <mxCell id="37Y6TiSnS4rqnT95gHOh-4" value="" style="line;strokeWidth=1;fillColor=none;align=left;verticalAlign=middle;spacingTop=-1;spacingLeft=3;spacingRight=3;rotatable=0;labelPosition=right;points=[];portConstraint=eastwest;strokeColor=inherit;" parent="37Y6TiSnS4rqnT95gHOh-2" vertex="1">
                    <mxGeometry y="52" width="160" height="8" as="geometry"/>
                </mxCell>
                <mxCell id="37Y6TiSnS4rqnT95gHOh-5" value="+ Required" style="text;strokeColor=none;fillColor=none;align=left;verticalAlign=top;spacingLeft=4;spacingRight=4;overflow=hidden;rotatable=0;points=[[0,0.5],[1,0.5]];portConstraint=eastwest;" parent="37Y6TiSnS4rqnT95gHOh-2" vertex="1">
                    <mxGeometry y="60" width="160" height="26" as="geometry"/>
                </mxCell>
                <mxCell id="37Y6TiSnS4rqnT95gHOh-6" value="+ ValidateMaxLength" style="text;strokeColor=none;fillColor=none;align=left;verticalAlign=top;spacingLeft=4;spacingRight=4;overflow=hidden;rotatable=0;points=[[0,0.5],[1,0.5]];portConstraint=eastwest;" parent="37Y6TiSnS4rqnT95gHOh-2" vertex="1">
                    <mxGeometry y="86" width="160" height="26" as="geometry"/>
                </mxCell>
                <mxCell id="37Y6TiSnS4rqnT95gHOh-7" style="edgeStyle=orthogonalEdgeStyle;curved=1;rounded=0;sketch=1;orthogonalLoop=1;jettySize=auto;html=1;entryX=0.01;entryY=0.145;entryDx=0;entryDy=0;entryPerimeter=0;strokeWidth=2;startArrow=none;startFill=0;endArrow=classic;endFill=1;" parent="1" source="aZHyCQAQ9oExqhm1M_VZ-14" target="37Y6TiSnS4rqnT95gHOh-2" edge="1">
                    <mxGeometry relative="1" as="geometry"/>
                </mxCell>
                <mxCell id="37Y6TiSnS4rqnT95gHOh-8" value="Birthday [VO]" style="swimlane;fontStyle=1;align=center;verticalAlign=top;childLayout=stackLayout;horizontal=1;startSize=26;horizontalStack=0;resizeParent=1;resizeParentMax=0;resizeLast=0;collapsible=1;marginBottom=0;fillColor=#2156a1;strokeColor=#6c8ebf;sketch=1;curveFitting=1;jiggle=2;fillStyle=solid;rounded=1;" parent="1" vertex="1">
                    <mxGeometry x="310" y="230" width="160" height="112" as="geometry"/>
                </mxCell>
                <mxCell id="37Y6TiSnS4rqnT95gHOh-9" value="+ value &lt;date&gt;" style="text;strokeColor=none;fillColor=none;align=left;verticalAlign=top;spacingLeft=4;spacingRight=4;overflow=hidden;rotatable=0;points=[[0,0.5],[1,0.5]];portConstraint=eastwest;" parent="37Y6TiSnS4rqnT95gHOh-8" vertex="1">
                    <mxGeometry y="26" width="160" height="26" as="geometry"/>
                </mxCell>
                <mxCell id="37Y6TiSnS4rqnT95gHOh-10" value="" style="line;strokeWidth=1;fillColor=none;align=left;verticalAlign=middle;spacingTop=-1;spacingLeft=3;spacingRight=3;rotatable=0;labelPosition=right;points=[];portConstraint=eastwest;strokeColor=inherit;" parent="37Y6TiSnS4rqnT95gHOh-8" vertex="1">
                    <mxGeometry y="52" width="160" height="8" as="geometry"/>
                </mxCell>
                <mxCell id="37Y6TiSnS4rqnT95gHOh-11" value="+ Required" style="text;strokeColor=none;fillColor=none;align=left;verticalAlign=top;spacingLeft=4;spacingRight=4;overflow=hidden;rotatable=0;points=[[0,0.5],[1,0.5]];portConstraint=eastwest;" parent="37Y6TiSnS4rqnT95gHOh-8" vertex="1">
                    <mxGeometry y="60" width="160" height="26" as="geometry"/>
                </mxCell>
                <mxCell id="37Y6TiSnS4rqnT95gHOh-12" value="+ ValidateIsAdult" style="text;strokeColor=none;fillColor=none;align=left;verticalAlign=top;spacingLeft=4;spacingRight=4;overflow=hidden;rotatable=0;points=[[0,0.5],[1,0.5]];portConstraint=eastwest;" parent="37Y6TiSnS4rqnT95gHOh-8" vertex="1">
                    <mxGeometry y="86" width="160" height="26" as="geometry"/>
                </mxCell>
                <mxCell id="37Y6TiSnS4rqnT95gHOh-13" style="edgeStyle=orthogonalEdgeStyle;curved=1;rounded=0;sketch=1;orthogonalLoop=1;jettySize=auto;html=1;entryX=0.003;entryY=0.126;entryDx=0;entryDy=0;entryPerimeter=0;strokeWidth=2;startArrow=none;startFill=0;endArrow=classic;endFill=1;" parent="1" source="KdlOUioSzNJeoNrvCxGt-1" target="37Y6TiSnS4rqnT95gHOh-8" edge="1">
                    <mxGeometry relative="1" as="geometry"/>
                </mxCell>
                <mxCell id="gX-k-wgJPzzNP8mTznVO-1" value="State [VO]" style="swimlane;fontStyle=1;align=center;verticalAlign=top;childLayout=stackLayout;horizontal=1;startSize=26;horizontalStack=0;resizeParent=1;resizeParentMax=0;resizeLast=0;collapsible=1;marginBottom=0;fillColor=#2156a1;strokeColor=#6c8ebf;sketch=1;curveFitting=1;jiggle=2;fillStyle=solid;rounded=1;" parent="1" vertex="1">
                    <mxGeometry x="310" y="370" width="160" height="86" as="geometry"/>
                </mxCell>
                <mxCell id="gX-k-wgJPzzNP8mTznVO-2" value="+ value &lt;bool&gt;" style="text;strokeColor=none;fillColor=none;align=left;verticalAlign=top;spacingLeft=4;spacingRight=4;overflow=hidden;rotatable=0;points=[[0,0.5],[1,0.5]];portConstraint=eastwest;" parent="gX-k-wgJPzzNP8mTznVO-1" vertex="1">
                    <mxGeometry y="26" width="160" height="26" as="geometry"/>
                </mxCell>
                <mxCell id="gX-k-wgJPzzNP8mTznVO-3" value="" style="line;strokeWidth=1;fillColor=none;align=left;verticalAlign=middle;spacingTop=-1;spacingLeft=3;spacingRight=3;rotatable=0;labelPosition=right;points=[];portConstraint=eastwest;strokeColor=inherit;" parent="gX-k-wgJPzzNP8mTznVO-1" vertex="1">
                    <mxGeometry y="52" width="160" height="8" as="geometry"/>
                </mxCell>
                <mxCell id="gX-k-wgJPzzNP8mTznVO-4" value="+ Required" style="text;strokeColor=none;fillColor=none;align=left;verticalAlign=top;spacingLeft=4;spacingRight=4;overflow=hidden;rotatable=0;points=[[0,0.5],[1,0.5]];portConstraint=eastwest;" parent="gX-k-wgJPzzNP8mTznVO-1" vertex="1">
                    <mxGeometry y="60" width="160" height="26" as="geometry"/>
                </mxCell>
                <mxCell id="gX-k-wgJPzzNP8mTznVO-5" style="edgeStyle=orthogonalEdgeStyle;curved=1;rounded=0;sketch=1;orthogonalLoop=1;jettySize=auto;html=1;entryX=0.004;entryY=0.177;entryDx=0;entryDy=0;entryPerimeter=0;strokeWidth=2;startArrow=none;startFill=0;endArrow=classic;endFill=1;" parent="1" source="KdlOUioSzNJeoNrvCxGt-4" target="gX-k-wgJPzzNP8mTznVO-1" edge="1">
                    <mxGeometry relative="1" as="geometry"/>
                </mxCell>
                <mxCell id="DKcAF6h-FT2sdpRfWC6B-1" value="Phone [VO]" style="swimlane;fontStyle=1;align=center;verticalAlign=top;childLayout=stackLayout;horizontal=1;startSize=26;horizontalStack=0;resizeParent=1;resizeParentMax=0;resizeLast=0;collapsible=1;marginBottom=0;fillColor=#19519f;strokeColor=#6c8ebf;sketch=1;curveFitting=1;jiggle=2;fillStyle=solid;rounded=1;" parent="1" vertex="1">
                    <mxGeometry x="-480" y="2" width="160" height="138" as="geometry"/>
                </mxCell>
                <mxCell id="DKcAF6h-FT2sdpRfWC6B-2" value="+ value &lt;string&gt;" style="text;strokeColor=none;fillColor=none;align=left;verticalAlign=top;spacingLeft=4;spacingRight=4;overflow=hidden;rotatable=0;points=[[0,0.5],[1,0.5]];portConstraint=eastwest;" parent="DKcAF6h-FT2sdpRfWC6B-1" vertex="1">
                    <mxGeometry y="26" width="160" height="26" as="geometry"/>
                </mxCell>
                <mxCell id="DKcAF6h-FT2sdpRfWC6B-3" value="" style="line;strokeWidth=1;fillColor=none;align=left;verticalAlign=middle;spacingTop=-1;spacingLeft=3;spacingRight=3;rotatable=0;labelPosition=right;points=[];portConstraint=eastwest;strokeColor=inherit;" parent="DKcAF6h-FT2sdpRfWC6B-1" vertex="1">
                    <mxGeometry y="52" width="160" height="8" as="geometry"/>
                </mxCell>
                <mxCell id="DKcAF6h-FT2sdpRfWC6B-4" value="+ Required" style="text;strokeColor=none;fillColor=none;align=left;verticalAlign=top;spacingLeft=4;spacingRight=4;overflow=hidden;rotatable=0;points=[[0,0.5],[1,0.5]];portConstraint=eastwest;" parent="DKcAF6h-FT2sdpRfWC6B-1" vertex="1">
                    <mxGeometry y="60" width="160" height="26" as="geometry"/>
                </mxCell>
                <mxCell id="DKcAF6h-FT2sdpRfWC6B-5" value="+ ValidateMinLength" style="text;strokeColor=none;fillColor=none;align=left;verticalAlign=top;spacingLeft=4;spacingRight=4;overflow=hidden;rotatable=0;points=[[0,0.5],[1,0.5]];portConstraint=eastwest;" parent="DKcAF6h-FT2sdpRfWC6B-1" vertex="1">
                    <mxGeometry y="86" width="160" height="26" as="geometry"/>
                </mxCell>
                <mxCell id="DKcAF6h-FT2sdpRfWC6B-6" value="+ ValidateMaxLength" style="text;strokeColor=none;fillColor=none;align=left;verticalAlign=top;spacingLeft=4;spacingRight=4;overflow=hidden;rotatable=0;points=[[0,0.5],[1,0.5]];portConstraint=eastwest;" parent="DKcAF6h-FT2sdpRfWC6B-1" vertex="1">
                    <mxGeometry y="112" width="160" height="26" as="geometry"/>
                </mxCell>
                <mxCell id="DKcAF6h-FT2sdpRfWC6B-7" style="edgeStyle=orthogonalEdgeStyle;curved=1;rounded=0;sketch=1;orthogonalLoop=1;jettySize=auto;html=1;entryX=1.008;entryY=0.102;entryDx=0;entryDy=0;entryPerimeter=0;strokeWidth=2;startArrow=none;startFill=0;endArrow=classic;endFill=1;" parent="1" source="ndgTGwTP8_TKGf2lj7u0-5" target="DKcAF6h-FT2sdpRfWC6B-1" edge="1">
                    <mxGeometry relative="1" as="geometry"/>
                </mxCell>
                <mxCell id="4yICWd_4Wez3gy5NbQaK-1" value="State [VO]" style="swimlane;fontStyle=1;align=center;verticalAlign=top;childLayout=stackLayout;horizontal=1;startSize=26;horizontalStack=0;resizeParent=1;resizeParentMax=0;resizeLast=0;collapsible=1;marginBottom=0;fillColor=#19519f;strokeColor=#6c8ebf;sketch=1;curveFitting=1;jiggle=2;fillStyle=solid;rounded=1;" parent="1" vertex="1">
                    <mxGeometry x="-480" y="164" width="160" height="86" as="geometry"/>
                </mxCell>
                <mxCell id="4yICWd_4Wez3gy5NbQaK-2" value="+ value &lt;bool&gt;" style="text;strokeColor=none;fillColor=none;align=left;verticalAlign=top;spacingLeft=4;spacingRight=4;overflow=hidden;rotatable=0;points=[[0,0.5],[1,0.5]];portConstraint=eastwest;" parent="4yICWd_4Wez3gy5NbQaK-1" vertex="1">
                    <mxGeometry y="26" width="160" height="26" as="geometry"/>
                </mxCell>
                <mxCell id="4yICWd_4Wez3gy5NbQaK-3" value="" style="line;strokeWidth=1;fillColor=none;align=left;verticalAlign=middle;spacingTop=-1;spacingLeft=3;spacingRight=3;rotatable=0;labelPosition=right;points=[];portConstraint=eastwest;strokeColor=inherit;" parent="4yICWd_4Wez3gy5NbQaK-1" vertex="1">
                    <mxGeometry y="52" width="160" height="8" as="geometry"/>
                </mxCell>
                <mxCell id="4yICWd_4Wez3gy5NbQaK-4" value="+ Required" style="text;strokeColor=none;fillColor=none;align=left;verticalAlign=top;spacingLeft=4;spacingRight=4;overflow=hidden;rotatable=0;points=[[0,0.5],[1,0.5]];portConstraint=eastwest;" parent="4yICWd_4Wez3gy5NbQaK-1" vertex="1">
                    <mxGeometry y="60" width="160" height="26" as="geometry"/>
                </mxCell>
                <mxCell id="4yICWd_4Wez3gy5NbQaK-5" style="edgeStyle=orthogonalEdgeStyle;curved=1;rounded=0;sketch=1;orthogonalLoop=1;jettySize=auto;html=1;entryX=1.001;entryY=0.164;entryDx=0;entryDy=0;entryPerimeter=0;strokeWidth=2;startArrow=none;startFill=0;endArrow=classic;endFill=1;" parent="1" source="ndgTGwTP8_TKGf2lj7u0-8" target="4yICWd_4Wez3gy5NbQaK-1" edge="1">
                    <mxGeometry relative="1" as="geometry"/>
                </mxCell>
                <mxCell id="oh374kxslSj3wYk_9T9b-1" value="Email [VO]" style="swimlane;fontStyle=1;align=center;verticalAlign=top;childLayout=stackLayout;horizontal=1;startSize=26;horizontalStack=0;resizeParent=1;resizeParentMax=0;resizeLast=0;collapsible=1;marginBottom=0;fillColor=#19519f;strokeColor=#6c8ebf;sketch=1;curveFitting=1;jiggle=2;fillStyle=solid;rounded=1;" parent="1" vertex="1">
                    <mxGeometry x="-480" y="390" width="160" height="164" as="geometry"/>
                </mxCell>
                <mxCell id="oh374kxslSj3wYk_9T9b-2" value="+ value &lt;string&gt;" style="text;strokeColor=none;fillColor=none;align=left;verticalAlign=top;spacingLeft=4;spacingRight=4;overflow=hidden;rotatable=0;points=[[0,0.5],[1,0.5]];portConstraint=eastwest;" parent="oh374kxslSj3wYk_9T9b-1" vertex="1">
                    <mxGeometry y="26" width="160" height="26" as="geometry"/>
                </mxCell>
                <mxCell id="oh374kxslSj3wYk_9T9b-3" value="" style="line;strokeWidth=1;fillColor=none;align=left;verticalAlign=middle;spacingTop=-1;spacingLeft=3;spacingRight=3;rotatable=0;labelPosition=right;points=[];portConstraint=eastwest;strokeColor=inherit;" parent="oh374kxslSj3wYk_9T9b-1" vertex="1">
                    <mxGeometry y="52" width="160" height="8" as="geometry"/>
                </mxCell>
                <mxCell id="oh374kxslSj3wYk_9T9b-4" value="+ Required" style="text;strokeColor=none;fillColor=none;align=left;verticalAlign=top;spacingLeft=4;spacingRight=4;overflow=hidden;rotatable=0;points=[[0,0.5],[1,0.5]];portConstraint=eastwest;" parent="oh374kxslSj3wYk_9T9b-1" vertex="1">
                    <mxGeometry y="60" width="160" height="26" as="geometry"/>
                </mxCell>
                <mxCell id="oh374kxslSj3wYk_9T9b-5" value="+ ValidateStructure" style="text;strokeColor=none;fillColor=none;align=left;verticalAlign=top;spacingLeft=4;spacingRight=4;overflow=hidden;rotatable=0;points=[[0,0.5],[1,0.5]];portConstraint=eastwest;" parent="oh374kxslSj3wYk_9T9b-1" vertex="1">
                    <mxGeometry y="86" width="160" height="26" as="geometry"/>
                </mxCell>
                <mxCell id="oh374kxslSj3wYk_9T9b-6" value="+ ValidateMinLength" style="text;strokeColor=none;fillColor=none;align=left;verticalAlign=top;spacingLeft=4;spacingRight=4;overflow=hidden;rotatable=0;points=[[0,0.5],[1,0.5]];portConstraint=eastwest;" parent="oh374kxslSj3wYk_9T9b-1" vertex="1">
                    <mxGeometry y="112" width="160" height="26" as="geometry"/>
                </mxCell>
                <mxCell id="oh374kxslSj3wYk_9T9b-7" value="+ ValidateMaxLength" style="text;strokeColor=none;fillColor=none;align=left;verticalAlign=top;spacingLeft=4;spacingRight=4;overflow=hidden;rotatable=0;points=[[0,0.5],[1,0.5]];portConstraint=eastwest;" parent="oh374kxslSj3wYk_9T9b-1" vertex="1">
                    <mxGeometry y="138" width="160" height="26" as="geometry"/>
                </mxCell>
                <mxCell id="oh374kxslSj3wYk_9T9b-8" style="edgeStyle=orthogonalEdgeStyle;curved=1;rounded=0;sketch=1;orthogonalLoop=1;jettySize=auto;html=1;entryX=1.01;entryY=0.084;entryDx=0;entryDy=0;entryPerimeter=0;strokeWidth=2;startArrow=none;startFill=0;endArrow=classic;endFill=1;" parent="1" source="sC_46NcB2rwX0GOuJXey-5" target="oh374kxslSj3wYk_9T9b-1" edge="1">
                    <mxGeometry relative="1" as="geometry"/>
                </mxCell>
                <mxCell id="oh374kxslSj3wYk_9T9b-9" value="State [VO]" style="swimlane;fontStyle=1;align=center;verticalAlign=top;childLayout=stackLayout;horizontal=1;startSize=26;horizontalStack=0;resizeParent=1;resizeParentMax=0;resizeLast=0;collapsible=1;marginBottom=0;fillColor=#19519f;strokeColor=#6c8ebf;sketch=1;curveFitting=1;jiggle=2;fillStyle=solid;rounded=1;" parent="1" vertex="1">
                    <mxGeometry x="-480" y="570" width="160" height="86" as="geometry"/>
                </mxCell>
                <mxCell id="oh374kxslSj3wYk_9T9b-10" value="+ value &lt;bool&gt;" style="text;strokeColor=none;fillColor=none;align=left;verticalAlign=top;spacingLeft=4;spacingRight=4;overflow=hidden;rotatable=0;points=[[0,0.5],[1,0.5]];portConstraint=eastwest;" parent="oh374kxslSj3wYk_9T9b-9" vertex="1">
                    <mxGeometry y="26" width="160" height="26" as="geometry"/>
                </mxCell>
                <mxCell id="oh374kxslSj3wYk_9T9b-11" value="" style="line;strokeWidth=1;fillColor=none;align=left;verticalAlign=middle;spacingTop=-1;spacingLeft=3;spacingRight=3;rotatable=0;labelPosition=right;points=[];portConstraint=eastwest;strokeColor=inherit;" parent="oh374kxslSj3wYk_9T9b-9" vertex="1">
                    <mxGeometry y="52" width="160" height="8" as="geometry"/>
                </mxCell>
                <mxCell id="oh374kxslSj3wYk_9T9b-12" value="+ Required" style="text;strokeColor=none;fillColor=none;align=left;verticalAlign=top;spacingLeft=4;spacingRight=4;overflow=hidden;rotatable=0;points=[[0,0.5],[1,0.5]];portConstraint=eastwest;" parent="oh374kxslSj3wYk_9T9b-9" vertex="1">
                    <mxGeometry y="60" width="160" height="26" as="geometry"/>
                </mxCell>
                <mxCell id="oh374kxslSj3wYk_9T9b-13" style="edgeStyle=orthogonalEdgeStyle;curved=1;rounded=0;sketch=1;orthogonalLoop=1;jettySize=auto;html=1;entryX=0.997;entryY=0.119;entryDx=0;entryDy=0;entryPerimeter=0;strokeWidth=2;startArrow=none;startFill=0;endArrow=classic;endFill=1;" parent="1" source="sC_46NcB2rwX0GOuJXey-8" target="oh374kxslSj3wYk_9T9b-9" edge="1">
                    <mxGeometry relative="1" as="geometry"/>
                </mxCell>
                <mxCell id="oh374kxslSj3wYk_9T9b-14" value="Address [VO]" style="swimlane;fontStyle=1;align=center;verticalAlign=top;childLayout=stackLayout;horizontal=1;startSize=26;horizontalStack=0;resizeParent=1;resizeParentMax=0;resizeLast=0;collapsible=1;marginBottom=0;fillColor=#1b519d;strokeColor=#6c8ebf;sketch=1;curveFitting=1;jiggle=2;fillStyle=solid;rounded=1;" parent="1" vertex="1">
                    <mxGeometry x="20" y="560" width="160" height="138" as="geometry"/>
                </mxCell>
                <mxCell id="oh374kxslSj3wYk_9T9b-15" value="+ value &lt;string&gt;" style="text;strokeColor=none;fillColor=none;align=left;verticalAlign=top;spacingLeft=4;spacingRight=4;overflow=hidden;rotatable=0;points=[[0,0.5],[1,0.5]];portConstraint=eastwest;" parent="oh374kxslSj3wYk_9T9b-14" vertex="1">
                    <mxGeometry y="26" width="160" height="26" as="geometry"/>
                </mxCell>
                <mxCell id="oh374kxslSj3wYk_9T9b-16" value="" style="line;strokeWidth=1;fillColor=none;align=left;verticalAlign=middle;spacingTop=-1;spacingLeft=3;spacingRight=3;rotatable=0;labelPosition=right;points=[];portConstraint=eastwest;strokeColor=inherit;" parent="oh374kxslSj3wYk_9T9b-14" vertex="1">
                    <mxGeometry y="52" width="160" height="8" as="geometry"/>
                </mxCell>
                <mxCell id="oh374kxslSj3wYk_9T9b-17" value="+ Required" style="text;strokeColor=none;fillColor=none;align=left;verticalAlign=top;spacingLeft=4;spacingRight=4;overflow=hidden;rotatable=0;points=[[0,0.5],[1,0.5]];portConstraint=eastwest;" parent="oh374kxslSj3wYk_9T9b-14" vertex="1">
                    <mxGeometry y="60" width="160" height="26" as="geometry"/>
                </mxCell>
                <mxCell id="oh374kxslSj3wYk_9T9b-19" value="+ ValidateMinLength" style="text;strokeColor=none;fillColor=none;align=left;verticalAlign=top;spacingLeft=4;spacingRight=4;overflow=hidden;rotatable=0;points=[[0,0.5],[1,0.5]];portConstraint=eastwest;" parent="oh374kxslSj3wYk_9T9b-14" vertex="1">
                    <mxGeometry y="86" width="160" height="26" as="geometry"/>
                </mxCell>
                <mxCell id="oh374kxslSj3wYk_9T9b-20" value="+ ValidateMaxLength" style="text;strokeColor=none;fillColor=none;align=left;verticalAlign=top;spacingLeft=4;spacingRight=4;overflow=hidden;rotatable=0;points=[[0,0.5],[1,0.5]];portConstraint=eastwest;" parent="oh374kxslSj3wYk_9T9b-14" vertex="1">
                    <mxGeometry y="112" width="160" height="26" as="geometry"/>
                </mxCell>
                <mxCell id="oh374kxslSj3wYk_9T9b-21" style="edgeStyle=orthogonalEdgeStyle;curved=1;rounded=0;sketch=1;orthogonalLoop=1;jettySize=auto;html=1;entryX=0.004;entryY=0.109;entryDx=0;entryDy=0;entryPerimeter=0;strokeWidth=2;startArrow=none;startFill=0;endArrow=classic;endFill=1;" parent="1" source="sC_46NcB2rwX0GOuJXey-15" target="oh374kxslSj3wYk_9T9b-14" edge="1">
                    <mxGeometry relative="1" as="geometry"/>
                </mxCell>
                <mxCell id="oh374kxslSj3wYk_9T9b-22" value="State [VO]" style="swimlane;fontStyle=1;align=center;verticalAlign=top;childLayout=stackLayout;horizontal=1;startSize=26;horizontalStack=0;resizeParent=1;resizeParentMax=0;resizeLast=0;collapsible=1;marginBottom=0;fillColor=#1b519d;strokeColor=#6c8ebf;sketch=1;curveFitting=1;jiggle=2;fillStyle=solid;rounded=1;" parent="1" vertex="1">
                    <mxGeometry x="20" y="720" width="160" height="86" as="geometry"/>
                </mxCell>
                <mxCell id="oh374kxslSj3wYk_9T9b-23" value="+ value &lt;bool&gt;" style="text;strokeColor=none;fillColor=none;align=left;verticalAlign=top;spacingLeft=4;spacingRight=4;overflow=hidden;rotatable=0;points=[[0,0.5],[1,0.5]];portConstraint=eastwest;" parent="oh374kxslSj3wYk_9T9b-22" vertex="1">
                    <mxGeometry y="26" width="160" height="26" as="geometry"/>
                </mxCell>
                <mxCell id="oh374kxslSj3wYk_9T9b-24" value="" style="line;strokeWidth=1;fillColor=none;align=left;verticalAlign=middle;spacingTop=-1;spacingLeft=3;spacingRight=3;rotatable=0;labelPosition=right;points=[];portConstraint=eastwest;strokeColor=inherit;" parent="oh374kxslSj3wYk_9T9b-22" vertex="1">
                    <mxGeometry y="52" width="160" height="8" as="geometry"/>
                </mxCell>
                <mxCell id="oh374kxslSj3wYk_9T9b-25" value="+ Required" style="text;strokeColor=none;fillColor=none;align=left;verticalAlign=top;spacingLeft=4;spacingRight=4;overflow=hidden;rotatable=0;points=[[0,0.5],[1,0.5]];portConstraint=eastwest;" parent="oh374kxslSj3wYk_9T9b-22" vertex="1">
                    <mxGeometry y="60" width="160" height="26" as="geometry"/>
                </mxCell>
                <mxCell id="oh374kxslSj3wYk_9T9b-27" style="edgeStyle=orthogonalEdgeStyle;curved=1;rounded=0;sketch=1;orthogonalLoop=1;jettySize=auto;html=1;entryX=0.004;entryY=0.188;entryDx=0;entryDy=0;entryPerimeter=0;strokeWidth=2;startArrow=none;startFill=0;endArrow=classic;endFill=1;" parent="1" source="sC_46NcB2rwX0GOuJXey-18" target="oh374kxslSj3wYk_9T9b-22" edge="1">
                    <mxGeometry relative="1" as="geometry"/>
                </mxCell>
            </root>
        </mxGraphModel>
    </diagram>
</mxfile>